<?xml version="1.0" encoding="UTF-8"?>
<svg version="1.1" xmlns="http://www.w3.org/2000/svg" width="267" height="240">
<path d="M0 0 C88.11 0 176.22 0 267 0 C267 79.2 267 158.4 267 240 C178.89 240 90.78 240 0 240 C0 160.8 0 81.6 0 0 Z " fill="#FDFEFD" transform="translate(0,0)"/>
<path d="M0 0 C0.8559375 0.66773437 1.711875 1.33546875 2.59375 2.0234375 C15.44387094 12.69221075 25.27103285 30.33633388 27 47 C27 48.65 27 50.3 27 52 C19.08 52 11.16 52 3 52 C2.649375 50.288125 2.29875 48.57625 1.9375 46.8125 C-1.54539174 33.075327 -8.92989983 22.25341735 -20.9375 14.6875 C-24.23392128 12.75150655 -27.63199764 11.32033996 -31.17797852 9.91333008 C-32.08040787 9.55459305 -32.98283722 9.19585602 -33.91261292 8.82624817 C-34.60145065 8.55358627 -35.29028839 8.28092438 -36 8 C-35.99000725 9.61825935 -35.99000725 9.61825935 -35.97981262 11.26921082 C-35.91899635 21.4364771 -35.87402484 31.60370648 -35.84456348 41.7711134 C-35.82890792 46.99828358 -35.80767148 52.22530691 -35.77368164 57.45239258 C-35.74108454 62.49686947 -35.72314616 67.54120511 -35.71536827 72.58577919 C-35.70982541 74.51031022 -35.69900159 76.43483353 -35.68280983 78.35930443 C-35.66103096 81.05505451 -35.65803327 83.75022101 -35.65942383 86.44604492 C-35.648638 87.24158279 -35.63785217 88.03712067 -35.6267395 88.85676575 C-35.65835699 94.52173909 -36.86946636 97.71164905 -40.6875 101.8125 C-44.08195396 103.55559798 -47.30555615 103.54459929 -51 103 C-54.72241245 101.34559447 -56.98356101 99.5300738 -59 96 C-59.27543526 93.08210807 -59.3794663 90.38289914 -59.34057617 87.46777344 C-59.34123329 86.17942596 -59.34123329 86.17942596 -59.34190369 84.86505127 C-59.33981572 82.02959362 -59.3164843 79.1947292 -59.29296875 76.359375 C-59.28737282 74.39211348 -59.28310271 72.42484777 -59.28010559 70.45758057 C-59.26865657 65.28223102 -59.23918878 60.10713444 -59.20599365 54.93188477 C-59.17529408 49.64993715 -59.16160049 44.36794863 -59.14648438 39.0859375 C-59.11431923 28.72384725 -59.06312208 18.36194467 -59 8 C-61.5542979 9.06375574 -64.10236481 10.13952573 -66.6484375 11.22265625 C-67.36443115 11.51934204 -68.0804248 11.81602783 -68.81811523 12.1217041 C-81.44518101 17.53175489 -89.33254531 27.79272393 -94.921875 39.99609375 C-96.3172836 43.88402568 -97.1039123 47.96760534 -98 52 C-105.92 52 -113.84 52 -122 52 C-119.92976058 31.29760578 -111.57956257 13.54399995 -95.53125 -0.05859375 C-66.58779493 -22.25750914 -28.57367384 -23.11105973 0 0 Z " fill="#E24F24" transform="translate(167,27)"/>
<path d="M0 0 C7.59 0 15.18 0 23 0 C24.0209375 3.34125 24.0209375 3.34125 25.0625 6.75 C29.96841774 21.76230465 37.71220077 32.62710508 52 39.9375 C57.64424822 42.5706698 62.79198855 44.44992304 69 45 C70.34578125 45.13921875 70.34578125 45.13921875 71.71875 45.28125 C84.66078096 45.97705812 97.99768586 41.14141849 108 33 C110.53138751 30.46861249 112.83259448 27.84795606 115 25 C114.20335937 24.96261719 113.40671875 24.92523438 112.5859375 24.88671875 C105.14922953 24.42531716 99.84683869 24.06582628 94.5625 18.375 C92.81529721 14.60104197 92.68536744 12.39668037 92.95703125 8.34375 C94.6751042 4.48291192 97.3711022 2.12090044 101 0 C104.74725868 -0.79496161 108.36699583 -0.70251854 112.18359375 -0.5859375 C113.23909927 -0.57744781 114.2946048 -0.56895813 115.38209534 -0.56021118 C118.73495959 -0.52677304 122.08536957 -0.45150739 125.4375 -0.375 C127.71806409 -0.3448882 129.99866609 -0.31751454 132.27929688 -0.29296875 C137.85369409 -0.22701363 143.42667168 -0.12676128 149 0 C148.85749543 1.58635889 148.71034923 3.17230122 148.5612793 4.75805664 C148.47984177 5.6412709 148.39840424 6.52448517 148.3144989 7.4344635 C146.52670302 22.01847494 138.47692715 35.16657152 129 46 C128.44570312 46.63808594 127.89140625 47.27617187 127.3203125 47.93359375 C115.23857051 60.9113501 96.11858533 68.51223836 78.56640625 69.23828125 C58.3245512 69.6935864 39.6523047 64.51554129 24.4375 50.5625 C11.10163782 37.69417222 3.26517535 23.15113005 0 5 C0 3.35 0 1.7 0 0 Z " fill="#0F7144" transform="translate(45,91)"/>
<path d="M0 0 C7 0 7 0 8.80444336 1.37695312 C9.22862549 2.00537109 9.65280762 2.63378906 10.08984375 3.28125 C10.56357422 3.95800781 11.03730469 4.63476562 11.52539062 5.33203125 C11.99138672 6.04746094 12.45738281 6.76289063 12.9375 7.5 C13.67709961 8.57314453 13.67709961 8.57314453 14.43164062 9.66796875 C15.64223982 11.43097729 16.82402547 13.21370958 18 15 C18.33 10.05 18.66 5.1 19 0 C20.98 0 22.96 0 25 0 C25 9.24 25 18.48 25 28 C23.02 28 21.04 28 19 28 C16.55078125 25.515625 16.55078125 25.515625 14.3125 22.25 C13.56613281 21.18265625 12.81976563 20.1153125 12.05078125 19.015625 C11.03564453 17.52289063 11.03564453 17.52289063 10 16 C9.01 14.68 8.02 13.36 7 12 C6.67 17.28 6.34 22.56 6 28 C4.02 28 2.04 28 0 28 C0 18.76 0 9.52 0 0 Z " fill="#DF5130" transform="translate(77,183)"/>
<path d="M0 0 C0.78375 0.495 1.5675 0.99 2.375 1.5 C1.385 3.15 0.395 4.8 -0.625 6.5 C-1.12 6.335 -1.615 6.17 -2.125 6 C-5.80505012 5.26398998 -8.85608935 5.20088011 -12.625 5.5 C-15.28156032 7.65845526 -15.55404589 9.08314463 -16.125 12.4375 C-15.82579348 15.66713123 -15.82579348 15.66713123 -13.5625 18.4375 C-10.70182665 20.89495573 -10.70182665 20.89495573 -6.8125 20.3125 C-5.760625 20.044375 -4.70875 19.77625 -3.625 19.5 C-3.295 18.18 -2.965 16.86 -2.625 15.5 C-4.605 15.5 -6.585 15.5 -8.625 15.5 C-8.625 13.85 -8.625 12.2 -8.625 10.5 C-4.665 10.5 -0.705 10.5 3.375 10.5 C3.765625 19.58203125 3.765625 19.58203125 3.375 22.5 C-0.09863644 25.96621414 -3.72731198 26.6629601 -8.5 26.75 C-13.74335509 26.69657426 -16.42196037 25.38831969 -20.375 22 C-23.26892422 18.52729093 -22.95625873 14.2960611 -22.90625 10.0078125 C-22.37658689 5.28498307 -19.94434094 2.66412436 -16.5 -0.375 C-10.89840915 -2.56692686 -5.51176622 -2.28073085 0 0 Z " fill="#176946" transform="translate(169.625,184.5)"/>
<path d="M0 0 C2.31 0 4.62 0 7 0 C8.57114634 3.6642354 10.13760116 7.33043621 11.69970703 10.99853516 C12.23194385 12.24648273 12.76546678 13.4938826 13.30029297 14.74072266 C14.06814869 16.53143628 14.83102285 18.32428343 15.59375 20.1171875 C16.05458984 21.19597168 16.51542969 22.27475586 16.99023438 23.38623047 C18 26 18 26 18 28 C15.125 28.1875 15.125 28.1875 12 28 C10 25 10 25 10 22 C5.71 22 1.42 22 -3 22 C-3.33 23.65 -3.66 25.3 -4 27 C-5 28 -5 28 -8.0625 28.0625 C-9.031875 28.041875 -10.00125 28.02125 -11 28 C-8.94661139 21.48529224 -6.50465317 15.21269971 -3.8125 8.9375 C-3.44447266 8.07189453 -3.07644531 7.20628906 -2.69726562 6.31445312 C-1.80127408 4.20829117 -0.90215345 2.10352808 0 0 Z " fill="#106D45" transform="translate(187,183)"/>
<path d="M0 0 C1.98 0 3.96 0 6 0 C6 3.63 6 7.26 6 11 C9.96 11 13.92 11 18 11 C18 7.37 18 3.74 18 0 C19.98 0 21.96 0 24 0 C24 9.24 24 18.48 24 28 C22.02 28 20.04 28 18 28 C18 24.37 18 20.74 18 17 C14.04 17 10.08 17 6 17 C6 20.63 6 24.26 6 28 C4.02 28 2.04 28 0 28 C0 18.76 0 9.52 0 0 Z " fill="#D1512B" transform="translate(33,183)"/>
<path d="M0 0 C1.98 0 3.96 0 6 0 C6 3.63 6 7.26 6 11 C6.70125 10.29875 7.4025 9.5975 8.125 8.875 C8.58519531 8.42511719 9.04539062 7.97523438 9.51953125 7.51171875 C11.02750061 6.0128851 11.02750061 6.0128851 12.38671875 4.33203125 C15.98872893 0.1773839 15.98872893 0.1773839 19.16015625 -0.37890625 C21.375 -0.375 21.375 -0.375 25 0 C21.79239749 3.80635497 18.59253891 7.54563567 15 11 C16.6708229 14.79148274 19.10970192 17.92940296 21.625 21.1875 C26 26.87097393 26 26.87097393 26 28 C21.00391815 28.78885503 21.00391815 28.78885503 18 28 C15.13096767 25.34547476 12.95272679 22.38065826 11 19 C11 18.34 11 17.68 11 17 C10.01 17 9.02 17 8 17 C7.34 20.63 6.68 24.26 6 28 C4.02 28 2.04 28 0 28 C0 18.76 0 9.52 0 0 Z " fill="#D45637" transform="translate(109,183)"/>
<path d="M0 0 C1.2375 0.7425 1.2375 0.7425 2.5 1.5 C1.51 3.15 0.52 4.8 -0.5 6.5 C-4.955 5.51 -4.955 5.51 -9.5 4.5 C-9.83 5.49 -10.16 6.48 -10.5 7.5 C-9.74074219 7.74234375 -8.98148438 7.9846875 -8.19921875 8.234375 C-7.20535156 8.56953125 -6.21148437 8.9046875 -5.1875 9.25 C-4.20136719 9.57484375 -3.21523437 9.8996875 -2.19921875 10.234375 C0.7669423 11.62516542 1.93064559 12.65052373 3.5 15.5 C3.5 19.57635432 3.11344006 21.72825283 0.5625 24.9375 C-3.81979316 27.17336386 -7.67284659 27.30067616 -12.5 26.5 C-14.90085343 25.40138462 -16.45748184 24.22001529 -18.5 22.5 C-17.51 20.85 -16.52 19.2 -15.5 17.5 C-14.613125 17.995 -13.72625 18.49 -12.8125 19 C-9.62413762 20.44378674 -7.91812454 20.80159922 -4.5 20.5 C-4.17 19.18 -3.84 17.86 -3.5 16.5 C-4.09167969 16.40203125 -4.68335938 16.3040625 -5.29296875 16.203125 C-10.2225405 15.27028597 -14.14312778 14.50658943 -17.5 10.5 C-18.04051695 6.71638135 -18.04762568 4.4909417 -16.1875 1.125 C-11.76096158 -3.13759256 -5.17510668 -2.21790286 0 0 Z " fill="#166C48" transform="translate(225.5,184.5)"/>
<path d="M0 0 C7.59 0 15.18 0 23 0 C23 1.98 23 3.96 23 6 C20.36 6 17.72 6 15 6 C15 13.26 15 20.52 15 28 C12.69 28 10.38 28 8 28 C8 20.74 8 13.48 8 6 C5.36 6 2.72 6 0 6 C0 4.02 0 2.04 0 0 Z " fill="#CD5933" transform="translate(5,183)"/>
<path d="M0 0 C3.875 0.4375 3.875 0.4375 5.875 2.4375 C2.74150268 3.48199911 1.88531744 3.37173645 -1.125 2.4375 C1.64542109 5.20792109 3.64033805 4.83546106 7.5 5.0625 C8.68851563 5.13726562 9.87703125 5.21203125 11.1015625 5.2890625 C12.01679688 5.33804688 12.93203125 5.38703125 13.875 5.4375 C14.535 7.7475 15.195 10.0575 15.875 12.4375 C16.865 12.1075 17.855 11.7775 18.875 11.4375 C18.28114041 14.6934888 17.53059235 17.55554295 15.875 20.4375 C12.99304295 22.09309235 10.1309888 22.84364041 6.875 23.4375 C6.215 22.7775 5.555 22.1175 4.875 21.4375 C5.844375 21.19 6.81375 20.9425 7.8125 20.6875 C11.13563114 18.76667374 11.13563114 18.76667374 11.49609375 15.56640625 C11.72858565 12.52970433 11.80951861 9.48238476 11.875 6.4375 C7.915 6.4375 3.955 6.4375 -0.125 6.4375 C-0.125 8.0875 -0.125 9.7375 -0.125 11.4375 C1.855 11.4375 3.835 11.4375 5.875 11.4375 C5.545 13.0875 5.215 14.7375 4.875 16.4375 C1.6875 17.1875 1.6875 17.1875 -2.125 17.4375 C-4.92689446 15.67108828 -6.64024911 14.40700178 -8.125 11.4375 C-8.53116229 7.78203935 -8.33934253 5.84832318 -6.625 2.5625 C-3.94802163 0.28706839 -3.33943217 0.09107542 0 0 Z " fill="#EBFDF4" transform="translate(161.125,188.5625)"/>
<path d="M0 0 C1.58468677 0.45363171 3.16769924 0.91311452 4.75 1.375 C5.63171875 1.63023438 6.5134375 1.88546875 7.421875 2.1484375 C9.76080572 2.9209934 11.83442562 3.83625676 14 5 C13.67 5.66 13.34 6.32 13 7 C10.69 6.34 8.38 5.68 6 5 C2.9588991 9.16689623 2.56686425 12.65765276 2.59936523 17.66430664 C2.59238617 18.41939011 2.5854071 19.17447357 2.57821655 19.95243835 C2.55828534 22.43845886 2.55874017 24.92406308 2.55859375 27.41015625 C2.54681877 29.14221818 2.53345425 30.87426998 2.51856995 32.60630798 C2.48241176 37.16019925 2.46218986 41.71400063 2.44702148 46.26800537 C2.42217442 53.5604605 2.38254682 60.85271701 2.32512093 68.14498711 C2.30879705 70.6909487 2.30501493 73.23672263 2.30210876 75.7827301 C2.29233249 77.34351933 2.28206922 78.90430561 2.27124023 80.46508789 C2.27379318 81.17220917 2.27634613 81.87933044 2.27897644 82.60787964 C2.24148565 86.20199158 2.11543813 89.0123403 0 92 C-2.125 92.75 -2.125 92.75 -4 93 C-3.51391769 92.18876678 -3.02783539 91.37753357 -2.52702332 90.54171753 C-0.67869689 86.25478227 -0.55928099 82.93817244 -0.56762695 78.33251953 C-0.5574353 77.48308273 -0.54724365 76.63364594 -0.53674316 75.75846863 C-0.50668454 72.96651553 -0.49735816 70.17490595 -0.48828125 67.3828125 C-0.47142928 65.44081488 -0.45327833 63.49882814 -0.43388367 61.55685425 C-0.38643392 56.45730995 -0.356592 51.35780976 -0.33044434 46.25811768 C-0.30061351 41.04959405 -0.25409181 35.84122226 -0.20898438 30.6328125 C-0.1230084 20.42195451 -0.05563767 10.21106522 0 0 Z " fill="#FEE1D4" transform="translate(131,35)"/>
<path d="M0 0 C0.78922852 0.03963867 1.57845703 0.07927734 2.39160156 0.12011719 C3.26042969 0.16265625 4.12925781 0.20519531 5.02441406 0.24902344 C6.38953125 0.33216797 6.38953125 0.33216797 7.78222656 0.41699219 C9.12414062 0.47693359 9.12414062 0.47693359 10.49316406 0.53808594 C15.38948872 0.8052895 19.37585156 1.55893476 24.03222656 3.16699219 C27.8242316 2.39432961 27.8242316 2.39432961 31.03222656 1.16699219 C31.52722656 2.15699219 31.52722656 2.15699219 32.03222656 3.16699219 C30.05222656 3.16699219 28.07222656 3.16699219 26.03222656 3.16699219 C26.03222656 12.40699219 26.03222656 21.64699219 26.03222656 31.16699219 C23.63536006 28.77012569 23.74941524 28.09670905 23.61816406 24.81542969 C23.57949219 23.96464844 23.54082031 23.11386719 23.50097656 22.23730469 C23.47003906 21.34785156 23.43910156 20.45839844 23.40722656 19.54199219 C23.36855469 18.64480469 23.32988281 17.74761719 23.29003906 16.82324219 C23.19563299 14.60469949 23.11005908 12.38616816 23.03222656 10.16699219 C21.91847656 10.49699219 20.80472656 10.82699219 19.65722656 11.16699219 C16.03222656 12.16699219 16.03222656 12.16699219 14.03222656 12.16699219 C14.07299316 12.73208496 14.11375977 13.29717773 14.15576172 13.87939453 C14.33384477 16.43296891 14.49572416 18.98731788 14.65722656 21.54199219 C14.72167969 22.43144531 14.78613281 23.32089844 14.85253906 24.23730469 C14.92988281 25.51347656 14.92988281 25.51347656 15.00878906 26.81542969 C15.06115723 27.60095215 15.11352539 28.38647461 15.16748047 29.19580078 C15.03222656 31.16699219 15.03222656 31.16699219 13.03222656 33.16699219 C9.90722656 33.29199219 9.90722656 33.29199219 7.03222656 33.16699219 C6.70222656 32.50699219 6.37222656 31.84699219 6.03222656 31.16699219 C8.34222656 31.16699219 10.65222656 31.16699219 13.03222656 31.16699219 C13.03222656 23.90699219 13.03222656 16.64699219 13.03222656 9.16699219 C15.67222656 9.16699219 18.31222656 9.16699219 21.03222656 9.16699219 C21.03222656 7.18699219 21.03222656 5.20699219 21.03222656 3.16699219 C13.44222656 3.16699219 5.85222656 3.16699219 -1.96777344 3.16699219 C-1.96777344 4.81699219 -1.96777344 6.46699219 -1.96777344 8.16699219 C-2.62777344 8.16699219 -3.28777344 8.16699219 -3.96777344 8.16699219 C-4.09277344 5.29199219 -4.09277344 5.29199219 -3.96777344 2.16699219 C-1.96777344 0.16699219 -1.96777344 0.16699219 0 0 Z " fill="#FEEFDF" transform="translate(6.9677734375,179.8330078125)"/>
<path d="M0 0 C1.98 0 3.96 0 6 0 C6 9.24 6 18.48 6 28 C4.02 28 2.04 28 0 28 C0 18.76 0 9.52 0 0 Z " fill="#D4522E" transform="translate(64,183)"/>
<path d="M0 0 C-3.20760251 3.80635497 -6.40746109 7.54563567 -10 11 C-8.3291771 14.79148274 -5.89029808 17.92940296 -3.375 21.1875 C1 26.87097393 1 26.87097393 1 28 C-4.02072539 28.79274611 -4.02072539 28.79274611 -7 28 C-9.81110263 25.30449411 -11.91754472 22.27986706 -14 19 C-13.34 18.34 -12.68 17.68 -12 17 C-11.34 18.65 -10.68 20.3 -10 22 C-9.67 21.67 -9.34 21.34 -9 21 C-9.96776098 17.20452079 -9.96776098 17.20452079 -12 14 C-12.04063832 12.33382885 -12.042721 10.66611905 -12 9 C-11.34 9 -10.68 9 -10 9 C-10.226875 8.071875 -10.45375 7.14375 -10.6875 6.1875 C-11 3 -11 3 -10.0625 1.125 C-6.75632849 -0.67836628 -3.72581793 -0.18323695 0 0 Z " fill="#CC5938" transform="translate(134,183)"/>
<path d="M0 0 C0.66 0 1.32 0 2 0 C2.33 1.98 2.66 3.96 3 6 C3.33 6 3.66 6 4 6 C4 7.98 4 9.96 4 12 C4.66 12 5.32 12 6 12 C6 8.04 6 4.08 6 0 C6.33 0 6.66 0 7 0 C7 8.25 7 16.5 7 25 C6.34 24.34 5.68 23.68 5 23 C4.01 23.33 3.02 23.66 2 24 C2 24.99 2 25.98 2 27 C1.34 27 0.68 27 0 27 C0 18.09 0 9.18 0 0 Z " fill="#FEEDE5" transform="translate(57,184)"/>
<path d="M0 0 C1.32 0.33 2.64 0.66 4 1 C4.01030746 2.10611633 4.02061493 3.21223267 4.03123474 4.35186768 C4.12893883 14.76970733 4.23167015 25.18748685 4.33933926 35.60522842 C4.39453257 40.96124469 4.4479469 46.31726646 4.49731445 51.67333984 C4.54501088 56.84103911 4.59735572 62.00867219 4.65294075 67.17629242 C4.67334036 69.14905909 4.69205738 71.12184389 4.70907402 73.09464264 C4.73317095 75.855154 4.76321841 78.61554066 4.79467773 81.37597656 C4.8004332 82.19381119 4.80618866 83.01164581 4.81211853 83.85426331 C4.85810714 87.39829586 5.04935726 90.58862283 6 94 C4.52128601 93.02616882 4.52128601 93.02616882 3 91 C2.71935959 88.1205128 2.62119107 85.45989388 2.65942383 82.58129883 C2.65898575 81.72254654 2.65854767 80.86379425 2.65809631 79.97901917 C2.66018777 77.13812593 2.68353557 74.2978215 2.70703125 71.45703125 C2.71262594 69.48834048 2.71689663 67.51964553 2.71989441 65.5509491 C2.7313532 60.36736536 2.76082934 55.18403349 2.79400635 50.00054932 C2.82468492 44.71198941 2.83839501 39.42338885 2.85351562 34.13476562 C2.88569799 23.75639971 2.93690689 13.37822079 3 3 C1.8553125 3.5259375 1.8553125 3.5259375 0.6875 4.0625 C-2 5 -2 5 -5 4 C-4.0409375 3.8453125 -4.0409375 3.8453125 -3.0625 3.6875 C-2.381875 3.460625 -1.70125 3.23375 -1 3 C-0.67 2.01 -0.34 1.02 0 0 Z " fill="#CA5839" transform="translate(105,32)"/>
<path d="M0 0 C7.59 0 15.18 0 23 0 C23 1.98 23 3.96 23 6 C20.62412376 5.88513575 18.24984829 5.75841844 15.875 5.625 C15.20984375 5.5940625 14.5446875 5.563125 13.859375 5.53125 C9.60178738 5.28080367 5.97914217 4.52471803 2 3 C1.34 3.99 0.68 4.98 0 6 C0 4.02 0 2.04 0 0 Z " fill="#D3522E" transform="translate(5,183)"/>
<path d="M0 0 C1.70499173 0.10685633 3.4100706 0.21233139 5.11523438 0.31640625 C9.22383002 0.57011106 13.33081027 0.84217808 17.4375 1.125 C17.4375 1.455 17.4375 1.785 17.4375 2.125 C16.84947601 2.12642502 16.26145203 2.12785004 15.65560913 2.12931824 C9.52302694 2.1490387 3.39143695 2.20336249 -2.74072266 2.27758789 C-5.02775956 2.30075309 -7.31490292 2.31516011 -9.60205078 2.32055664 C-12.8942284 2.32985658 -16.18473499 2.37087274 -19.4765625 2.41796875 C-21.00502304 2.41206978 -21.00502304 2.41206978 -22.56436157 2.40605164 C-27.14736881 2.49977411 -30.51400417 2.57107287 -34.16943359 5.5246582 C-36.18743025 7.71744359 -37.53601658 9.35349477 -38.5625 12.125 C-39.5625 10.125 -39.5625 10.125 -39.00390625 7.9609375 C-38.19010417 5.68229167 -37.37630208 3.40364583 -36.5625 1.125 C-24.17177805 -0.78924927 -12.48599517 -0.86569567 0 0 Z " fill="#D4F6EB" transform="translate(176.5625,88.875)"/>
<path d="M0 0 C2.31 5.61 4.62 11.22 7 17 C6.01 17 5.02 17 4 17 C2.35 14.03 0.7 11.06 -1 8 C-1.33 8.99 -1.66 9.98 -2 11 C-4.31 11 -6.62 11 -9 11 C-8.60446947 9.3489597 -8.18286103 7.7041485 -7.75 6.0625 C-7.51796875 5.14597656 -7.2859375 4.22945312 -7.046875 3.28515625 C-6 1 -6 1 -4.015625 0.18359375 C-2 0 -2 0 0 0 Z " fill="#1C704C" transform="translate(196,188)"/>
<path d="M0 0 C0.99 0 1.98 0 3 0 C3 7.92 3 15.84 3 24 C1.02 23.67 -0.96 23.34 -3 23 C-3.33 21.02 -3.66 19.04 -4 17 C-3.01 16.34 -2.02 15.68 -1 15 C-0.61588725 12.390379 -0.39706803 9.9941926 -0.3125 7.375 C-0.27833984 6.66859375 -0.24417969 5.9621875 -0.20898438 5.234375 C-0.12648692 3.49014312 -0.06156665 1.74509605 0 0 Z " fill="#E14F21" transform="translate(98,185)"/>
<path d="M0 0 C1.98 0 3.96 0 6 0 C6 9.24 6 18.48 6 28 C4.02 28 2.04 28 0 28 C-0.33 27.01 -0.66 26.02 -1 25 C0.98 25.33 2.96 25.66 5 26 C5 18.08 5 10.16 5 2 C4.01 2 3.02 2 2 2 C1.67 6.95 1.34 11.9 1 17 C0.01 17.33 -0.98 17.66 -2 18 C-2.47179687 17.27683594 -2.47179687 17.27683594 -2.953125 16.5390625 C-6.09388748 11.74628648 -6.09388748 11.74628648 -11 9 C-10.34 9 -9.68 9 -9 9 C-9.515625 8.21625 -10.03125 7.4325 -10.5625 6.625 C-11.036875 5.75875 -11.51125 4.8925 -12 4 C-11.67 3.34 -11.34 2.68 -11 2 C-7.7 6.29 -4.4 10.58 -1 15 C-0.67 10.05 -0.34 5.1 0 0 Z " fill="#C75B3C" transform="translate(96,183)"/>
<path d="M0 0 C0.33 0 0.66 0 1 0 C1 8.91 1 17.82 1 27 C2.98 27 4.96 27 7 27 C7 21.39 7 15.78 7 10 C8.65 11.65 10.3 13.3 12 15 C11.01 15.495 11.01 15.495 10 16 C10.02320312 16.84304687 10.04640625 17.68609375 10.0703125 18.5546875 C10.09738281 20.19824219 10.09738281 20.19824219 10.125 21.875 C10.14820312 22.96554688 10.17140625 24.05609375 10.1953125 25.1796875 C10 28 10 28 8 30 C5 30.25 5 30.25 2 30 C0 28 0 28 -0.22705078 25.20263672 C-0.21134033 23.45877686 -0.21134033 23.45877686 -0.1953125 21.6796875 C-0.18886719 20.42285156 -0.18242188 19.16601562 -0.17578125 17.87109375 C-0.15902344 16.55238281 -0.14226562 15.23367187 -0.125 13.875 C-0.11496983 12.53516279 -0.10584404 11.19531848 -0.09765625 9.85546875 C-0.07402075 6.57013427 -0.04107234 3.28515535 0 0 Z " fill="#FEE6D3" transform="translate(76,184)"/>
<path d="M0 0 C3.96 0 7.92 0 12 0 C12 3.63 12 7.26 12 11 C13.98 11 15.96 11 18 11 C18 11.66 18 12.32 18 13 C14.625 13.125 14.625 13.125 11 13 C9 11 9 11 8.8046875 8.6171875 C8.83949219 7.25980469 8.83949219 7.25980469 8.875 5.875 C8.89304687 4.96492187 8.91109375 4.05484375 8.9296875 3.1171875 C8.96449219 2.06917969 8.96449219 2.06917969 9 1 C6.69 1 4.38 1 2 1 C2 4.96 2 8.92 2 13 C-0.64 13 -3.28 13 -6 13 C-6 12.34 -6 11.68 -6 11 C-4.02 11 -2.04 11 0 11 C0 7.37 0 3.74 0 0 Z " fill="#FEE6DB" transform="translate(39,200)"/>
<path d="M0 0 C0.66 0.66 1.32 1.32 2 2 C3.92901141 2.45974503 3.92901141 2.45974503 6.1328125 2.6328125 C7.34130859 2.75849609 7.34130859 2.75849609 8.57421875 2.88671875 C9.83685547 3.00466797 9.83685547 3.00466797 11.125 3.125 C12.39923828 3.25455078 12.39923828 3.25455078 13.69921875 3.38671875 C15.79869727 3.59902557 17.89926242 3.80053603 20 4 C20 4.33 20 4.66 20 5 C18.02 5 16.04 5 14 5 C14 12.26 14 19.52 14 27 C13.67 27 13.34 27 13 27 C12.95101563 25.96359375 12.90203125 24.9271875 12.8515625 23.859375 C12.77650403 22.48955792 12.70095753 21.11976752 12.625 19.75 C12.5940625 19.06808594 12.563125 18.38617188 12.53125 17.68359375 C12.29111429 13.56126407 12.02435008 10.02435008 9 7 C8.67 13.6 8.34 20.2 8 27 C7.67 27 7.34 27 7 27 C7 19.74 7 12.48 7 5 C4.69 5 2.38 5 0 5 C0 3.35 0 1.7 0 0 Z " fill="#D97D62" transform="translate(6,184)"/>
<path d="M0 0 C2.31 0 4.62 0 7 0 C7 0.66 7 1.32 7 2 C5.35 2 3.7 2 2 2 C2 9.59 2 17.18 2 25 C2.66 25 3.32 25 4 25 C4 22.36 4 19.72 4 17 C4.33 17 4.66 17 5 17 C5.33 20.63 5.66 24.26 6 28 C4.02 28 2.04 28 0 28 C0 18.76 0 9.52 0 0 Z " fill="#C45C3F" transform="translate(77,183)"/>
<path d="M0 0 C1.32 0.33 2.64 0.66 4 1 C4.33 2.98 4.66 4.96 5 7 C5.99 6.67 6.98 6.34 8 6 C7.40614041 9.2559888 6.65559235 12.11804295 5 15 C2.11804295 16.65559235 -0.7440112 17.40614041 -4 18 C-4.66 17.34 -5.32 16.68 -6 16 C-4.02 15.01 -2.04 14.02 0 13 C0 8.71 0 4.42 0 0 Z " fill="#EFFBF4" transform="translate(172,194)"/>
<path d="M0 0 C0.99 0 1.98 0 3 0 C4.54296875 2.15234375 4.54296875 2.15234375 6.1875 4.9375 C8.55920332 8.68706229 8.55920332 8.68706229 12.234375 10.88671875 C14.65906893 11.20183553 14.65906893 11.20183553 18 11 C18 11.33 18 11.66 18 12 C14.92289939 12.36201184 12.06361376 12.52430974 9 12 C6.80968036 10.21645401 5.6234022 8.36131229 4 6 C3.34 6 2.68 6 2 6 C1.34 8.31 0.68 10.62 0 13 C-2.64 12.67 -5.28 12.34 -8 12 C-8 11.67 -8 11.34 -8 11 C-6.02 11 -4.04 11 -2 11 C-2.061875 9.1128125 -2.061875 9.1128125 -2.125 7.1875 C-2.2390374 3.70935927 -2.05925681 3.08888522 0 0 Z " fill="#FBE4CF" transform="translate(117,200)"/>
<path d="M0 0 C1.65 0 3.3 0 5 0 C5.66 1.98 6.32 3.96 7 6 C5.0625 6.5625 5.0625 6.5625 3 7 C2.67 6.67 2.34 6.34 2 6 C1.67 6.99 1.34 7.98 1 9 C1.66 9 2.32 9 3 9 C2.67 13.62 2.34 18.24 2 23 C1.34 23 0.68 23 0 23 C0 15.41 0 7.82 0 0 Z " fill="#E34D26" transform="translate(79,185)"/>
<path d="M0 0 C10.47288497 7.53362843 18.21013618 14.8994052 25 26 C24.01 26 23.02 26 22 26 C20.59886384 24.04690112 19.26660533 22.04291182 18 20 C17.34 19.34 16.68 18.68 16 18 C16 17.01 16 16.02 16 15 C14.68 14.67 13.36 14.34 12 14 C11.67 12.68 11.34 11.36 11 10 C9.68 9.67 8.36 9.34 7 9 C7 8.34 7 7.68 7 7 C6.401875 6.87625 5.80375 6.7525 5.1875 6.625 C3 6 3 6 0 4 C0 2.68 0 1.36 0 0 Z " fill="#D36448" transform="translate(160,22)"/>
<path d="M0 0 C0 9.24 0 18.48 0 28 C-0.66 28.33 -1.32 28.66 -2 29 C-2 19.76 -2 10.52 -2 1 C-3.98 1 -5.96 1 -8 1 C-8 0.34 -8 -0.32 -8 -1 C-4.23350139 -2.34517808 -3.97399267 -1.98699633 0 0 Z " fill="#F5D4C7" transform="translate(104,182)"/>
<path d="M0 0 C1.0625 1.875 1.0625 1.875 1 4.375 C-0.14609252 7.43124672 -1.24995342 8.08330228 -3.9375 9.875 C-5.2059375 11.2053125 -5.2059375 11.2053125 -6.5 12.5625 C-8.9375 14.875 -8.9375 14.875 -11.9375 14.875 C-10.46028578 11.42298361 -8.49955999 9.22538064 -5.8125 6.625 C-4.72582031 5.56539062 -4.72582031 5.56539062 -3.6171875 4.484375 C-3.06289062 3.95328125 -2.50859375 3.4221875 -1.9375 2.875 C-4.2475 2.545 -6.5575 2.215 -8.9375 1.875 C-8.6075 1.215 -8.2775 0.555 -7.9375 -0.125 C-2.7433489 -1.59291227 -2.7433489 -1.59291227 0 0 Z " fill="#FDE6D3" transform="translate(134.9375,181.125)"/>
<path d="M0 0 C0.99 0.33 1.98 0.66 3 1 C2.375 2.9375 2.375 2.9375 1 5 C-2.125 5.75 -2.125 5.75 -5 6 C-5.05437607 7.58294782 -5.09296271 9.16644256 -5.125 10.75 C-5.14820313 11.63171875 -5.17140625 12.5134375 -5.1953125 13.421875 C-4.98833448 16.15398487 -4.47336314 17.70810179 -3 20 C-0.9664052 21.26804566 -0.9664052 21.26804566 1 22 C0.34 22.33 -0.32 22.66 -1 23 C-4.27904022 20.5838651 -6.49943792 18.81072975 -8 15 C-8.42454356 10.90352708 -8.04997129 7.34267428 -5.47265625 4.046875 C-3.69312541 2.43664413 -2.14690915 1.07814215 0 0 Z " fill="#2B7253" transform="translate(146,91)"/>
<path d="M0 0 C1.21248413 0.05945801 1.21248413 0.05945801 2.44946289 0.12011719 C3.77300781 0.18392578 3.77300781 0.18392578 5.12329102 0.24902344 C6.50871094 0.33216797 6.50871094 0.33216797 7.92211914 0.41699219 C8.84186523 0.45695313 9.76161133 0.49691406 10.70922852 0.53808594 C17.59908157 0.90996714 17.59908157 0.90996714 20.98461914 3.16699219 C13.39461914 3.16699219 5.80461914 3.16699219 -2.01538086 3.16699219 C-2.01538086 4.81699219 -2.01538086 6.46699219 -2.01538086 8.16699219 C-2.67538086 8.16699219 -3.33538086 8.16699219 -4.01538086 8.16699219 C-4.14038086 5.29199219 -4.14038086 5.29199219 -4.01538086 2.16699219 C-2.01538086 0.16699219 -2.01538086 0.16699219 0 0 Z " fill="#FEE7D3" transform="translate(7.015380859375,179.8330078125)"/>
<path d="M0 0 C0.99 0 1.98 0 3 0 C2.84015625 0.55816406 2.6803125 1.11632812 2.515625 1.69140625 C1.36318636 6.85118835 1.07479347 12.18813722 3.5 16.9375 C3.995 17.618125 4.49 18.29875 5 19 C5 19.99 5 20.98 5 22 C4.01 21.34 3.02 20.68 2 20 C2 19.34 2 18.68 2 18 C1.01 17.67 0.02 17.34 -1 17 C-2.45780584 10.98655091 -2.74225803 5.65590719 0 0 Z " fill="#E7F9F1" transform="translate(146,188)"/>
<path d="M0 0 C0.33 1.32 0.66 2.64 1 4 C4.3 4.33 7.6 4.66 11 5 C11 5.33 11 5.66 11 6 C7.04 6 3.08 6 -1 6 C-1.33 7.65 -1.66 9.3 -2 11 C-3 12 -3 12 -6.0625 12.0625 C-7.031875 12.041875 -8.00125 12.02125 -9 12 C-8.875 10.125 -8.875 10.125 -8 8 C-7.030625 7.71125 -6.06125 7.4225 -5.0625 7.125 C-4.051875 6.75375 -3.04125 6.3825 -2 6 C-0.54839062 2.98220128 -0.54839062 2.98220128 0 0 Z " fill="#2C7F5B" transform="translate(185,199)"/>
<path d="M0 0 C0 3 0 3 -2 5.1875 C-2.66 5.785625 -3.32 6.38375 -4 7 C-4 6.34 -4 5.68 -4 5 C-4.4125 5.45375 -4.825 5.9075 -5.25 6.375 C-7.06625721 8.06152455 -8.8000426 8.9000213 -11 10 C-11.33 10.66 -11.66 11.32 -12 12 C-17.30769231 15 -17.30769231 15 -21 15 C-14.33564306 9.29855395 -7.68243753 4.24950449 0 0 Z " fill="#CF5C3F" transform="translate(87,17)"/>
<path d="M0 0 C3.96 1.32 7.92 2.64 12 4 C11.67 5.65 11.34 7.3 11 9 C4.47692308 8.38461538 4.47692308 8.38461538 2.0625 6.4375 C1.5365625 5.7259375 1.5365625 5.7259375 1 5 C3.97 5.495 3.97 5.495 7 6 C7 5.34 7 4.68 7 4 C4.69 3.34 2.38 2.68 0 2 C0 1.34 0 0.68 0 0 Z " fill="#D5F3E4" transform="translate(210,197)"/>
<path d="M0 0 C0.33 0.66 0.66 1.32 1 2 C1.66 2.33 2.32 2.66 3 3 C2.79375 4.2375 2.5875 5.475 2.375 6.75 C1.93892876 10.11909835 1.96596361 12.12841921 4 15 C3.01 15.33 2.02 15.66 1 16 C1 15.01 1 14.02 1 13 C0.34 13 -0.32 13 -1 13 C-1.66 9.37 -2.32 5.74 -3 2 C-2.01 1.34 -1.02 0.68 0 0 Z " fill="#0D7048" transform="translate(150,190)"/>
<path d="M0 0 C0.66 0.33 1.32 0.66 2 1 C1.67 2.32 1.34 3.64 1 5 C0.34 5 -0.32 5 -1 5 C-0.71125 5.845625 -0.4225 6.69125 -0.125 7.5625 C1.00772704 11.02361041 2.01824316 14.49372557 3 18 C2.34 18 1.68 18 1 18 C-0.5078125 15.8125 -0.5078125 15.8125 -2.125 13 C-2.66382812 12.071875 -3.20265625 11.14375 -3.7578125 10.1875 C-4.16773437 9.465625 -4.57765625 8.74375 -5 8 C-3.35 5.36 -1.7 2.72 0 0 Z " fill="#E35028" transform="translate(123,187)"/>
<path d="M0 0 C0.33 0 0.66 0 1 0 C0.85737588 1.5627962 0.71074489 3.12522696 0.5625 4.6875 C0.48128906 5.55761719 0.40007813 6.42773438 0.31640625 7.32421875 C0.01156391 9.90220641 -0.49089259 12.45446295 -1 15 C6.59 15 14.18 15 22 15 C22 15.33 22 15.66 22 16 C14.08 16 6.16 16 -2 16 C-3 6 -3 6 -2 4 C-1.34 4 -0.68 4 0 4 C0 2.68 0 1.36 0 0 Z " fill="#FCCEBC" transform="translate(46,64)"/>
<path d="M0 0 C3.3 0 6.6 0 10 0 C10.33 1.98 10.66 3.96 11 6 C7.37 6 3.74 6 0 6 C0 5.34 0 4.68 0 4 C2.64 4 5.28 4 8 4 C8 3.34 8 2.68 8 2 C5.03 2 2.06 2 -1 2 C-0.67 1.34 -0.34 0.68 0 0 Z " fill="#D45437" transform="translate(40,194)"/>
<path d="M0 0 C0.66 1.32 1.32 2.64 2 4 C1.45730469 4.58007812 0.91460937 5.16015625 0.35546875 5.7578125 C-3.49973637 9.96727971 -6.82479874 13.69794692 -9 19 C-9.33 19 -9.66 19 -10 19 C-10 17.02 -10 15.04 -10 13 C-9.01 12.67 -8.02 12.34 -7 12 C-7 10.02 -7 8.04 -7 6 C-6.01 6 -5.02 6 -4 6 C-3.67 5.34 -3.34 4.68 -3 4 C-2.01 4 -1.02 4 0 4 C0 2.68 0 1.36 0 0 Z " fill="#D65738" transform="translate(83,44)"/>
<path d="M0 0 C2.4375 1.125 2.4375 1.125 5 3 C5.8125 6.1875 5.8125 6.1875 6 9 C5.01 9.495 5.01 9.495 4 10 C4 8.68 4 7.36 4 6 C1.02148438 6.09765625 1.02148438 6.09765625 -1.95703125 6.1953125 C-4 6 -4 6 -7 4 C-5.68 4 -4.36 4 -3 4 C-3 3.34 -3 2.68 -3 2 C-2.01 2 -1.02 2 0 2 C0 1.34 0 0.68 0 0 Z " fill="#297355" transform="translate(223,195)"/>
<path d="M0 0 C2 1 2 1 2.62109375 2.671875 C3.09148053 5.56208656 3.0943182 8.32272535 3.0625 11.25 C3.05347656 12.32765625 3.04445313 13.4053125 3.03515625 14.515625 C3.02355469 15.33546875 3.01195312 16.1553125 3 17 C2.01 17 1.02 17 0 17 C0 11.39 0 5.78 0 0 Z " fill="#E44D27" transform="translate(15,191)"/>
<path d="M0 0 C0.33 0.66 0.66 1.32 1 2 C2.65 1.34 4.3 0.68 6 0 C6.33 2.97 6.66 5.94 7 9 C5.68 7.68 4.36 6.36 3 5 C2.67 9.62 2.34 14.24 2 19 C1.67 19 1.34 19 1 19 C1 14.05 1 9.1 1 4 C0.34 4 -0.32 4 -1 4 C-0.67 2.68 -0.34 1.36 0 0 Z " fill="#D05630" transform="translate(81,190)"/>
<path d="M0 0 C1.32 0.66 2.64 1.32 4 2 C4 2.99 4 3.98 4 5 C4.99 5.33 5.98 5.66 7 6 C6.01 6 5.02 6 4 6 C4.33 6.99 4.66 7.98 5 9 C-0.75 7.375 -0.75 7.375 -3 4 C-2.01 2.68 -1.02 1.36 0 0 Z " fill="#237153" transform="translate(210,202)"/>
<path d="M0 0 C3.5 1.5 3.5 1.5 6 3 C5.01 4.65 4.02 6.3 3 8 C2.01 7.34 1.02 6.68 0 6 C0.99 5.67 1.98 5.34 3 5 C2.67 4.34 2.34 3.68 2 3 C-0.05352387 2.45613203 -0.05352387 2.45613203 -2.4375 2.25 C-3.64212891 2.10304687 -3.64212891 2.10304687 -4.87109375 1.953125 C-7.22033547 1.75942222 -7.22033547 1.75942222 -9 4 C-11.125 3.625 -11.125 3.625 -13 3 C-8.84740033 -0.11444975 -5.06609973 -0.77028417 0 0 Z " fill="#2A6C50" transform="translate(222,183)"/>
<path d="M0 0 C1.53171061 3.06342123 0.6678469 5.58889461 0.1875 8.9375 C0.01605469 10.18402344 -0.15539062 11.43054688 -0.33203125 12.71484375 C-1 16 -1 16 -3 19 C-3.33 19.66 -3.66 20.32 -4 21 C-4.66 21 -5.32 21 -6 21 C-5.38120598 18.24846929 -4.75523814 15.49891102 -4.125 12.75 C-3.95097656 11.97269531 -3.77695313 11.19539063 -3.59765625 10.39453125 C-3.42363281 9.64042969 -3.24960938 8.88632813 -3.0703125 8.109375 C-2.91320801 7.41811523 -2.75610352 6.72685547 -2.59423828 6.01464844 C-1.95653155 3.85262875 -1.06200166 1.98395915 0 0 Z " fill="#DDF6EA" transform="translate(195,92)"/>
<path d="M0 0 C0 0.33 0 0.66 0 1 C-0.54527344 1.10957031 -1.09054688 1.21914062 -1.65234375 1.33203125 C-8.72225354 2.8185251 -15.56917458 4.64730001 -22 8 C-22.33 7.01 -22.66 6.02 -23 5 C-21.10546779 4.35035977 -19.20931351 3.70544885 -17.3125 3.0625 C-16.25675781 2.70285156 -15.20101562 2.34320313 -14.11328125 1.97265625 C-9.26661171 0.45845209 -5.07989878 -0.11813718 0 0 Z " fill="#CC5B3C" transform="translate(112,11)"/>
<path d="M0 0 C0.33 0 0.66 0 1 0 C1 5.28 1 10.56 1 16 C-2.60964568 12.39035432 -4.698339 10.23990184 -7 6 C-5.68 6.33 -4.36 6.66 -3 7 C-3 7.99 -3 8.98 -3 10 C-2.34 9.67 -1.68 9.34 -1 9 C-0.53348793 6.87423218 -0.53348793 6.87423218 -0.375 4.4375 C-0.30023438 3.61121094 -0.22546875 2.78492188 -0.1484375 1.93359375 C-0.09945312 1.29550781 -0.05046875 0.65742188 0 0 Z " fill="#FEECDD" transform="translate(95,183)"/>
<path d="M0 0 C2 0.9375 2 0.9375 3.25 4 C3.4975 4.969375 3.745 5.93875 4 6.9375 C1.125 7.125 1.125 7.125 -2 6.9375 C-4 3.9375 -4 3.9375 -4 0.9375 C-2 -0.0625 -2 -0.0625 0 0 Z " fill="#266B50" transform="translate(201,204.0625)"/>
<path d="M0 0 C0.33 0 0.66 0 1 0 C1 1.65 1 3.3 1 5 C2.98 5 4.96 5 7 5 C6.67 6.65 6.34 8.3 6 10 C3.69 10.33 1.38 10.66 -1 11 C-0.34 9.68 0.32 8.36 1 7 C0.67 6.67 0.34 6.34 0 6 C-0.04080783 4.00041636 -0.04254356 1.99954746 0 0 Z " fill="#C7EAD7" transform="translate(160,195)"/>
<path d="M0 0 C3.18916928 0.0759326 5.30959372 0.34038648 7.6640625 2.58984375 C8.70286626 3.84101379 9.71725569 5.11295907 10.703125 6.40625 C11.92891994 8.13591647 11.92891994 8.13591647 14 9 C13.67 9.99 13.34 10.98 13 12 C11.39490066 10.56354149 9.79095576 9.12579294 8.1875 7.6875 C7.29417969 6.88699219 6.40085938 6.08648437 5.48046875 5.26171875 C3.60073214 3.54775419 1.77407253 1.82122396 0 0 Z " fill="#FDEBDD" transform="translate(162,23)"/>
<path d="M0 0 C0.99 0 1.98 0 3 0 C3.33 1.65 3.66 3.3 4 5 C3.01 5 2.02 5 1 5 C1 4.34 1 3.68 1 3 C-6.59 3 -14.18 3 -22 3 C-21.67 2.34 -21.34 1.68 -21 1 C-20.09906616 1.00785522 -20.09906616 1.00785522 -19.17993164 1.01586914 C-16.47413162 1.03658014 -13.76834823 1.04964125 -11.0625 1.0625 C-10.11697266 1.07087891 -9.17144531 1.07925781 -8.19726562 1.08789062 C-7.29814453 1.09111328 -6.39902344 1.09433594 -5.47265625 1.09765625 C-4.64000244 1.10289307 -3.80734863 1.10812988 -2.94946289 1.11352539 C-0.99483202 1.21643292 -0.99483202 1.21643292 0 0 Z " fill="#CFF0E3" transform="translate(67,88)"/>
<path d="M0 0 C1.32 0 2.64 0 4 0 C4 1.65 4 3.3 4 5 C4.99 5.33 5.98 5.66 7 6 C3.7 6.66 0.4 7.32 -3 8 C-2.01 5.36 -1.02 2.72 0 0 Z " fill="#247654" transform="translate(156,183)"/>
<path d="M0 0 C-3.30288336 2.20192224 -4.27462727 2.23959968 -8.10546875 2.1953125 C-9.08837891 2.18886719 -10.07128906 2.18242187 -11.08398438 2.17578125 C-12.10814453 2.15902344 -13.13230469 2.14226562 -14.1875 2.125 C-15.22326172 2.11597656 -16.25902344 2.10695312 -17.32617188 2.09765625 C-19.88434685 2.0740786 -22.44205748 2.0411703 -25 2 C-25 1.67 -25 1.34 -25 1 C-21.58444097 0.63455844 -18.1674656 0.28462134 -14.75 -0.0625 C-13.29787109 -0.2181543 -13.29787109 -0.2181543 -11.81640625 -0.37695312 C-10.88183594 -0.47041016 -9.94726562 -0.56386719 -8.984375 -0.66015625 C-8.12553711 -0.74918213 -7.26669922 -0.83820801 -6.38183594 -0.92993164 C-4.03174315 -0.99906619 -2.23550359 -0.69010991 0 0 Z " fill="#DAF5EA" transform="translate(138,159)"/>
<path d="M0 0 C0.33 0 0.66 0 1 0 C1 2.97 1 5.94 1 9 C1.66 9 2.32 9 3 9 C2.30058404 12.14737182 1.23921302 15.02588876 0 18 C-0.33 18 -0.66 18 -1 18 C-1.18451025 5.33029613 -1.18451025 5.33029613 0 0 Z " fill="#DE5122" transform="translate(113,188)"/>
<path d="M0 0 C6 2 12 4 18 6 C17.34 6.66 16.68 7.32 16 8 C12.04227227 7.62405004 8.75841164 6.11539824 5.1875 4.4375 C3.72376953 3.75494141 3.72376953 3.75494141 2.23046875 3.05859375 C1.49441406 2.70925781 0.75835937 2.35992187 0 2 C0 1.34 0 0.68 0 0 Z " fill="#E1F7EB" transform="translate(85,152)"/>
<path d="M0 0 C0.33 0 0.66 0 1 0 C1.0582253 3.08325358 1.09367134 6.16636505 1.125 9.25 C1.14175781 10.12269531 1.15851563 10.99539062 1.17578125 11.89453125 C1.18222656 12.73886719 1.18867188 13.58320312 1.1953125 14.453125 C1.20578613 15.22817383 1.21625977 16.00322266 1.22705078 16.80175781 C0.96889267 19.30117243 0.34457965 20.88499671 -1 23 C-3.125 23.75 -3.125 23.75 -5 24 C-4.01 22.02 -3.02 20.04 -2 18 C-1.34 18 -0.68 18 0 18 C0 12.06 0 6.12 0 0 Z " fill="#FDEFE4" transform="translate(132,104)"/>
<path d="M0 0 C5.60461531 0.42089996 10.72086547 0.91613111 16 3 C16 3.33 16 3.66 16 4 C9.86090397 5.43680971 5.79622721 4.32637691 0 2 C0 1.34 0 0.68 0 0 Z " fill="#CC5636" transform="translate(128,11)"/>
<path d="M0 0 C1.65 0.33 3.3 0.66 5 1 C4.5 2.875 4.5 2.875 3 5 C0.40629269 6.09902852 -2.18169386 6.84734175 -5 7 C-5.66 6.34 -6.32 5.68 -7 5 C-6.030625 4.54625 -5.06125 4.0925 -4.0625 3.625 C-0.92920418 2.34213779 -0.92920418 2.34213779 0 0 Z " fill="#E1F9EE" transform="translate(173,205)"/>
<path d="M0 0 C0.66 0.33 1.32 0.66 2 1 C1.649375 1.598125 1.29875 2.19625 0.9375 2.8125 C-0.33304698 5.10813214 -0.33304698 5.10813214 1 8 C-0.65 7.67 -2.3 7.34 -4 7 C-4.33 5.35 -4.66 3.7 -5 2 C-2.625 0.9375 -2.625 0.9375 0 0 Z " fill="#DFF7EF" transform="translate(208,202)"/>
<path d="M0 0 C0.66 0 1.32 0 2 0 C2 2.31 2 4.62 2 7 C2.66 7 3.32 7 4 7 C4 6.34 4 5.68 4 5 C4.66 5.33 5.32 5.66 6 6 C4.71937515 7.7074998 3.38232443 9.37373596 2 11 C1.34 11 0.68 11 0 11 C0 7.37 0 3.74 0 0 Z " fill="#FAD0C5" transform="translate(115,183)"/>
<path d="M0 0 C2.97 0.33 5.94 0.66 9 1 C9.33 1.99 9.66 2.98 10 4 C8.35 4.33 6.7 4.66 5 5 C5 4.34 5 3.68 5 3 C3.68 3 2.36 3 1 3 C0.67 2.01 0.34 1.02 0 0 Z " fill="#0F6D45" transform="translate(215,184)"/>
<path d="M0 0 C1.65 0 3.3 0 5 0 C5 0.66 5 1.32 5 2 C5.99 2 6.98 2 8 2 C8 2.99 8 3.98 8 5 C1.84765625 4.4140625 1.84765625 4.4140625 0 4 C-0.33 3.34 -0.66 2.68 -1 2 C-0.67 1.34 -0.34 0.68 0 0 Z " fill="#116A46" transform="translate(160,183)"/>
<path d="M0 0 C0.99 0.33 1.98 0.66 3 1 C1.02 5.29 -0.96 9.58 -3 14 C-4.0300801 10.90975969 -4.37377626 9.21447584 -4 6 C-2 2.6875 -2 2.6875 0 0 Z " fill="#FDE4D7" transform="translate(52,47)"/>
<path d="M0 0 C4.29 0 8.58 0 13 0 C13.66 1.98 14.32 3.96 15 6 C12 5 12 5 10.3125 3.4375 C6.84555864 1.28237429 4.03708359 1.79814582 0 2 C0 1.34 0 0.68 0 0 Z " fill="#DBF7E9" transform="translate(184,205)"/>
<path d="M0 0 C2.97 0.495 2.97 0.495 6 1 C5.38722388 3.96175123 4.74627478 5.38058783 3 8 C2.34 8 1.68 8 1 8 C0 1.125 0 1.125 0 0 Z " fill="#1B704C" transform="translate(221,200)"/>
<path d="M0 0 C2.31 0.66 4.62 1.32 7 2 C7.66 4.97 8.32 7.94 9 11 C8.34 11 7.68 11 7 11 C5.52734375 9.1015625 5.52734375 9.1015625 3.9375 6.625 C3.41027344 5.81289063 2.88304687 5.00078125 2.33984375 4.1640625 C1 2 1 2 0 0 Z " fill="#D05A35" transform="translate(157,50)"/>
<path d="M0 0 C2.97 0.495 2.97 0.495 6 1 C6.33 1.99 6.66 2.98 7 4 C7.99 4 8.98 4 10 4 C10 4.66 10 5.32 10 6 C10.66 6 11.32 6 12 6 C12.66 7.65 13.32 9.3 14 11 C13.49210938 10.61328125 12.98421875 10.2265625 12.4609375 9.828125 C9.19408332 7.3565724 5.93836498 4.91667921 2.5 2.6875 C1.675 2.130625 0.85 1.57375 0 1 C0 0.67 0 0.34 0 0 Z " fill="#CF5B48" transform="translate(143,39)"/>
<path d="M0 0 C1.2989839 0.90626784 2.58893167 1.82549537 3.875 2.75 C4.59429687 3.26046875 5.31359375 3.7709375 6.0546875 4.296875 C8.08570565 6.07503547 8.97855012 7.52701607 10 10 C9.01 9.67 8.02 9.34 7 9 C7 8.34 7 7.68 7 7 C6.401875 6.87625 5.80375 6.7525 5.1875 6.625 C3 6 3 6 0 4 C0 2.68 0 1.36 0 0 Z " fill="#CE5C41" transform="translate(160,22)"/>
<path d="M0 0 C0.33 0 0.66 0 1 0 C1.08082094 1.95766281 1.13910778 3.91626728 1.1875 5.875 C1.23970703 7.51082031 1.23970703 7.51082031 1.29296875 9.1796875 C1.19628906 10.11039063 1.09960938 11.04109375 1 12 C0.01 12.66 -0.98 13.32 -2 14 C-1.85970581 11.8537974 -1.71261836 9.70803782 -1.5625 7.5625 C-1.48128906 6.36753906 -1.40007812 5.17257813 -1.31640625 3.94140625 C-1 1 -1 1 0 0 Z " fill="#41795F" transform="translate(172,195)"/>
<path d="M0 0 C2.46278801 2.46278801 2.99771255 4.70676982 4 8 C1.69 8 -0.62 8 -3 8 C-2.01 5.36 -1.02 2.72 0 0 Z " fill="#DAF8E8" transform="translate(190,191)"/>
<path d="M0 0 C1.12383849 3.37151546 1.16190374 4.68027502 0 8 C-2.4375 9.875 -2.4375 9.875 -5 11 C-5.66 10.67 -6.32 10.34 -7 10 C-3.535 5.05 -3.535 5.05 0 0 Z " fill="#E0F7EA" transform="translate(183,124)"/>
<path d="M0 0 C5.85272256 0.45020943 10.08220119 3.03839227 15 6 C11.59068103 7.13643966 10.99664544 6.86747764 7.8125 5.5625 C7.09707031 5.27503906 6.38164062 4.98757812 5.64453125 4.69140625 C4.83048828 4.34916016 4.83048828 4.34916016 4 4 C4 3.34 4 2.68 4 2 C2.68 2 1.36 2 0 2 C0 1.34 0 0.68 0 0 Z " fill="#CC6440" transform="translate(144,15)"/>
<path d="M0 0 C0.33 0 0.66 0 1 0 C1.10957031 0.74765625 1.21914062 1.4953125 1.33203125 2.265625 C1.49058594 3.25046875 1.64914063 4.2353125 1.8125 5.25 C1.96332031 6.22453125 2.11414063 7.1990625 2.26953125 8.203125 C3.03218264 11.12322338 4.03774101 12.74205815 6 15 C5.01 15 4.02 15 3 15 C2.67 14.01 2.34 13.02 2 12 C1.01 11.67 0.02 11.34 -1 11 C-0.67 7.37 -0.34 3.74 0 0 Z " fill="#C9E9DA" transform="translate(146,194)"/>
<path d="M0 0 C0 3.19633438 -0.33810135 4.34096216 -2 7 C-3.875 8.8125 -3.875 8.8125 -6 10 C-7.32 9.67 -8.64 9.34 -10 9 C-6.7 6.03 -3.4 3.06 0 0 Z " fill="#E3FCF1" transform="translate(173,137)"/>
<path d="M0 0 C6.93 0.495 6.93 0.495 14 1 C12.68 2.65 11.36 4.3 10 6 C9.67 5.01 9.34 4.02 9 3 C6.36 3 3.72 3 1 3 C0.67 2.01 0.34 1.02 0 0 Z " fill="#DFFBEF" transform="translate(147,114)"/>
<path d="M0 0 C2.64 0 5.28 0 8 0 C6.68 0.99 5.36 1.98 4 3 C4.99 3.33 5.98 3.66 7 4 C7 4.33 7 4.66 7 5 C4.36 5 1.72 5 -1 5 C-0.67 3.35 -0.34 1.7 0 0 Z " fill="#1B6B47" transform="translate(186,199)"/>
<path d="M0 0 C3.625 0.375 3.625 0.375 7 1 C7 1.66 7 2.32 7 3 C7.66 3 8.32 3 9 3 C9 4.65 9 6.3 9 8 C7.62437146 6.71034824 6.29233607 5.37310707 5 4 C5 3.34 5 2.68 5 2 C2.69 2 0.38 2 -2 2 C-1.34 1.34 -0.68 0.68 0 0 Z " fill="#FDE6D3" transform="translate(79,181)"/>
<path d="M0 0 C0.66 0.33 1.32 0.66 2 1 C1 3 1 3 -1.4375 3.875 C-4.13605515 4.77050152 -4.13605515 4.77050152 -5.3125 7.125 C-5.539375 7.74375 -5.76625 8.3625 -6 9 C-7.32 8.67 -8.64 8.34 -10 8 C-8.71064081 6.85157077 -7.41843421 5.70633773 -6.125 4.5625 C-5.04605469 3.60537109 -5.04605469 3.60537109 -3.9453125 2.62890625 C-2 1 -2 1 0 0 Z " fill="#FCE8D9" transform="translate(94,40)"/>
<path d="M0 0 C0.66 0.66 1.32 1.32 2 2 C1.01 2.99 0.02 3.98 -1 5 C-0.690625 5.5775 -0.38125 6.155 -0.0625 6.75 C0.9450856 8.88371067 1.68819872 10.6614904 2 13 C1.34 13.66 0.68 14.32 0 15 C-0.309375 14.030625 -0.61875 13.06125 -0.9375 12.0625 C-1.69523342 9.15934208 -1.69523342 9.15934208 -3 8 C-3.04063832 6.33382885 -3.042721 4.66611905 -3 3 C-2.34 3 -1.68 3 -1 3 C-0.67 2.01 -0.34 1.02 0 0 Z " fill="#C9532C" transform="translate(125,189)"/>
<path d="M0 0 C1.125 1.75 1.125 1.75 1.125 4.75 C0.135 5.08 -0.855 5.41 -1.875 5.75 C-1.875 4.76 -1.875 3.77 -1.875 2.75 C-4.185 2.42 -6.495 2.09 -8.875 1.75 C-8.545 1.09 -8.215 0.43 -7.875 -0.25 C-2.60782443 -1.73854962 -2.60782443 -1.73854962 0 0 Z " fill="#FCECE0" transform="translate(134.875,181.25)"/>
<path d="M0 0 C1.65 0 3.3 0 5 0 C1.11327187 3.18005028 -2.89952133 6.10554447 -7 9 C-7 8.01 -7 7.02 -7 6 C-6.34 6 -5.68 6 -5 6 C-5 5.34 -5 4.68 -5 4 C-4.360625 3.71125 -3.72125 3.4225 -3.0625 3.125 C-0.84793921 2.17176549 -0.84793921 2.17176549 0 0 Z " fill="#FDE4CD" transform="translate(77,20)"/>
<path d="M0 0 C2.97 0.495 2.97 0.495 6 1 C5.2884375 1.680625 5.2884375 1.680625 4.5625 2.375 C2.90972192 3.93258204 2.90972192 3.93258204 2 6 C0.68 5.34 -0.64 4.68 -2 4 C-1.34 2.68 -0.68 1.36 0 0 Z " fill="#CCF1E0" transform="translate(216,188)"/>
<path d="M0 0 C0.99 0.33 1.98 0.66 3 1 C2.34 2.32 1.68 3.64 1 5 C-0.98 5 -2.96 5 -5 5 C-3.35 3.35 -1.7 1.7 0 0 Z " fill="#246A4C" transform="translate(146,91)"/>
<path d="M0 0 C0.66 0 1.32 0 2 0 C2 2.64 2 5.28 2 8 C2.66 8 3.32 8 4 8 C3.67 10.31 3.34 12.62 3 15 C2.67 15 2.34 15 2 15 C1.66223316 13.2508503 1.32996329 11.50063855 1 9.75 C0.814375 8.77546875 0.62875 7.8009375 0.4375 6.796875 C0 4 0 4 0 0 Z " fill="#FDEEDE" transform="translate(192,64)"/>
<path d="M0 0 C1.24546405 2.49092811 0.7767578 3.41080733 0 6 C-0.66 6 -1.32 6 -2 6 C-1.67 6.99 -1.34 7.98 -1 9 C-1.99 9.33 -2.98 9.66 -4 10 C-4 10.66 -4 11.32 -4 12 C-4.66 11.67 -5.32 11.34 -6 11 C-4.02 7.37 -2.04 3.74 0 0 Z " fill="#D15C41" transform="translate(57,43)"/>
<path d="M0 0 C0.66 1.32 1.32 2.64 2 4 C-0.31 6.64 -2.62 9.28 -5 12 C-6 9 -6 9 -4.75 6.3125 C-4.1725 5.549375 -3.595 4.78625 -3 4 C-2.01 4 -1.02 4 0 4 C0 2.68 0 1.36 0 0 Z " fill="#CF6046" transform="translate(83,44)"/>
<path d="M0 0 C1.65 0 3.3 0 5 0 C5 1.32 5 2.64 5 4 C3.02 4 1.04 4 -1 4 C-0.67 2.68 -0.34 1.36 0 0 Z " fill="#2E6D54" transform="translate(177,207)"/>
<path d="M0 0 C1.07156762 4.28627048 1.0365854 4.66075382 -0.9375 8.25 C-1.31777344 8.95640625 -1.69804687 9.6628125 -2.08984375 10.390625 C-2.39019531 10.92171875 -2.69054687 11.4528125 -3 12 C-3.66 11.67 -4.32 11.34 -5 11 C-3.35 7.37 -1.7 3.74 0 0 Z " fill="#246D4F" transform="translate(184,191)"/>
<path d="M0 0 C3.375 -0.125 3.375 -0.125 7 0 C7.66 0.66 8.32 1.32 9 2 C8.625 4.125 8.625 4.125 8 6 C7.236875 5.38125 6.47375 4.7625 5.6875 4.125 C3.00374191 1.94402948 3.00374191 1.94402948 0 0 Z " fill="#E2FBF4" transform="translate(221,194)"/>
<path d="M0 0 C1.65 0 3.3 0 5 0 C1.45960866 2.9156164 -2.1626772 5.50127818 -6 8 C-6 7.01 -6 6.02 -6 5 C-5.195625 4.731875 -4.39125 4.46375 -3.5625 4.1875 C-2.716875 3.795625 -1.87125 3.40375 -1 3 C-0.67 2.01 -0.34 1.02 0 0 Z " fill="#CB5D40" transform="translate(91,39)"/>
<path d="M0 0 C2.97 0.33 5.94 0.66 9 1 C8.01 1.33 7.02 1.66 6 2 C6 2.66 6 3.32 6 4 C4.35 4 2.7 4 1 4 C0.67 2.68 0.34 1.36 0 0 Z " fill="#0D6843" transform="translate(156,205)"/>
<path d="M0 0 C1.32 0.66 2.64 1.32 4 2 C4 3.65 4 5.3 4 7 C2.68 7.33 1.36 7.66 0 8 C-0.33 7.34 -0.66 6.68 -1 6 C-0.34 6 0.32 6 1 6 C0.67 4.02 0.34 2.04 0 0 Z " fill="#217452" transform="translate(153,202)"/>
<path d="M0 0 C1.485 0.99 1.485 0.99 3 2 C3 2.99 3 3.98 3 5 C4.32 4.67 5.64 4.34 7 4 C7 4.66 7 5.32 7 6 C4.69 6.33 2.38 6.66 0 7 C0 4.69 0 2.38 0 0 Z " fill="#207652" transform="translate(208,188)"/>
<path d="M0 0 C0.66 0 1.32 0 2 0 C0.34832443 3.5786304 -1.78286492 6.74820188 -4 10 C-5 8 -5 8 -4.0625 4.875 C-3.5365625 3.451875 -3.5365625 3.451875 -3 2 C-2.01 2 -1.02 2 0 2 C0 1.34 0 0.68 0 0 Z " fill="#DAF6EA" transform="translate(142,91)"/>
<path d="M0 0 C3.72114571 2.31537955 6.61229661 4.28579473 9 8 C6.36 7.34 3.72 6.68 1 6 C1.66 5.67 2.32 5.34 3 5 C3 4.34 3 3.68 3 3 C2.01 2.67 1.02 2.34 0 2 C0 1.34 0 0.68 0 0 Z " fill="#FEE6DF" transform="translate(147,42)"/>
<path d="M0 0 C0 3.20395416 -0.74335022 5.09399739 -2 8 C-3.32 7.67 -4.64 7.34 -6 7 C-4.02 4.69 -2.04 2.38 0 0 Z " fill="#CD6247" transform="translate(65,33)"/>
<path d="M0 0 C1.32 0.33 2.64 0.66 4 1 C3.67 1.99 3.34 2.98 3 4 C0.36 4.33 -2.28 4.66 -5 5 C-4.67 4.34 -4.34 3.68 -4 3 C-3.01 3 -2.02 3 -1 3 C-0.67 2.01 -0.34 1.02 0 0 Z " fill="#DC5236" transform="translate(105,32)"/>
<path d="M0 0 C2.31 0.33 4.62 0.66 7 1 C4.44931155 3.35448165 3.28982642 3.98327924 -0.25 4.1875 C-1.1575 4.125625 -2.065 4.06375 -3 4 C-2.505 3.525625 -2.01 3.05125 -1.5 2.5625 C0.11542197 1.24076302 0.11542197 1.24076302 0 0 Z " fill="#FAF3E9" transform="translate(80,16)"/>
<path d="M0 0 C0.66 0.99 1.32 1.98 2 3 C1.5390625 5.04296875 1.5390625 5.04296875 0.625 7.1875 C0.32851562 7.90292969 0.03203125 8.61835937 -0.2734375 9.35546875 C-0.51320313 9.89816406 -0.75296875 10.44085938 -1 11 C-3 7.25 -3 7.25 -3 5 C-2.34 5 -1.68 5 -1 5 C-0.67 3.35 -0.34 1.7 0 0 Z " fill="#CC5936" transform="translate(71,62)"/>
<path d="M0 0 C0.33 0.66 0.66 1.32 1 2 C-0.25 5.0625 -0.25 5.0625 -2 8 C-2.99 8.33 -3.98 8.66 -5 9 C-3.7508258 5.54074837 -2.32472205 2.85306797 0 0 Z " fill="#FCE5DB" transform="translate(80,52)"/>
<path d="M0 0 C0 0.99 0 1.98 0 3 C-2.5 5.1875 -2.5 5.1875 -5 7 C-5.33 6.34 -5.66 5.68 -6 5 C-2.25 1.125 -2.25 1.125 0 0 Z " fill="#FEF1E6" transform="translate(69,27)"/>
<path d="M0 0 C7.42857143 -0.28571429 7.42857143 -0.28571429 11 2 C11 2.66 11 3.32 11 4 C7.37 3.01 3.74 2.02 0 1 C0 0.67 0 0.34 0 0 Z " fill="#FCE6D6" transform="translate(141,13)"/>
<path d="M0 0 C0.66 0.66 1.32 1.32 2 2 C4.57061311 2.64767793 4.57061311 2.64767793 7 3 C7 3.66 7 4.32 7 5 C4.69 5 2.38 5 0 5 C0 3.35 0 1.7 0 0 Z " fill="#D06B50" transform="translate(6,184)"/>
<path d="M0 0 C1.32 0 2.64 0 4 0 C4.33 1.98 4.66 3.96 5 6 C4.01 5.67 3.02 5.34 2 5 C2 4.34 2 3.68 2 3 C1.34 3 0.68 3 0 3 C0 2.01 0 1.02 0 0 Z " fill="#E7492B" transform="translate(153,42)"/>
<path d="M0 0 C0.33 0 0.66 0 1 0 C1.04254356 1.99954746 1.04080783 4.00041636 1 6 C0 7 0 7 -2.5625 7.0625 C-3.7690625 7.0315625 -3.7690625 7.0315625 -5 7 C-4.0409375 6.1028125 -4.0409375 6.1028125 -3.0625 5.1875 C-0.79689611 3.09189663 -0.79689611 3.09189663 0 0 Z " fill="#D0F2E4" transform="translate(228,204)"/>
<path d="M0 0 C0.99 0.33 1.98 0.66 3 1 C2.34 2.32 1.68 3.64 1 5 C-0.32 5 -1.64 5 -3 5 C-2.34 4.67 -1.68 4.34 -1 4 C-0.34786708 1.97536745 -0.34786708 1.97536745 0 0 Z " fill="#0D6743" transform="translate(225,204)"/>
<path d="M0 0 C2.31 0 4.62 0 7 0 C7 0.99 7 1.98 7 3 C5.68 3 4.36 3 3 3 C3 2.34 3 1.68 3 1 C2.01 1.33 1.02 1.66 0 2 C0 1.34 0 0.68 0 0 Z " fill="#096B41" transform="translate(209,194)"/>
<path d="M0 0 C6.0546875 -0.1953125 6.0546875 -0.1953125 8 0 C8.66 0.66 9.32 1.32 10 2 C7.00468461 2.99843846 5.82744268 3.00732761 2.8125 2.5625 C1.554375 2.376875 0.29625 2.19125 -1 2 C-0.67 1.34 -0.34 0.68 0 0 Z " fill="#DDF8EA" transform="translate(157,189)"/>
<path d="M0 0 C2.4375 0.375 2.4375 0.375 5 1 C5.33 1.66 5.66 2.32 6 3 C3.69 3 1.38 3 -1 3 C-0.67 2.01 -0.34 1.02 0 0 Z " fill="#EDFCF5" transform="translate(188,180)"/>
<path d="M0 0 C3.63 0 7.26 0 11 0 C11 0.66 11 1.32 11 2 C7.37 2.33 3.74 2.66 0 3 C0 2.01 0 1.02 0 0 Z " fill="#FCE7D8" transform="translate(114,129)"/>
</svg>
