<?xml version="1.0" encoding="UTF-8"?>
<svg version="1.1" xmlns="http://www.w3.org/2000/svg" width="2683" height="2418">
<path d="M0 0 C0.90114344 -0.00282738 1.80228687 -0.00565475 2.73073769 -0.00856781 C7.51849266 -0.02346399 12.30621835 -0.03274858 17.09399414 -0.03710938 C20.9651859 -0.04145361 24.8361497 -0.05520039 28.70727539 -0.078125 C61.99996057 -0.27095413 94.63350679 1.37508096 127.58203125 6.390625 C128.58003754 6.53963257 129.57804382 6.68864014 130.60629272 6.84216309 C178.00139355 13.9460486 224.62971598 25.05190531 269.76953125 41.203125 C270.42262268 41.43662659 271.07571411 41.67012817 271.74859619 41.91070557 C280.12513464 44.91297091 288.46246879 48.01364549 296.76953125 51.203125 C297.52943359 51.49380859 298.28933594 51.78449219 299.07226562 52.08398438 C315.33207167 58.33775593 331.10568357 65.7231441 346.74633789 73.375 C349.2004315 74.57489814 351.65764338 75.7682219 354.11523438 76.9609375 C362.49534499 81.04115464 370.81719115 85.2189332 379.0703125 89.55078125 C379.84434921 89.95642303 380.61838593 90.36206482 381.4158783 90.77999878 C386.96603798 93.71538461 392.31714433 96.87668249 397.62890625 100.2265625 C400.37766001 101.95649957 403.148708 103.64014819 405.93945312 105.30126953 C408.49684693 106.82356024 411.04647476 108.35861503 413.59570312 109.89453125 C415.12182931 110.81322356 416.64929221 111.72969725 418.17773438 112.64453125 C428.93191347 119.09868939 439.28052203 125.84193423 449.30102539 133.39111328 C453.26159808 136.37274801 457.20747164 139.20068961 461.45703125 141.765625 C467.67563325 145.58355739 473.15618299 150.28397851 478.76953125 154.921875 C482.33642267 157.86575851 485.96624761 160.71275636 489.64453125 163.515625 C498.42723561 170.23498799 506.86684735 177.09678607 514.96875 184.6171875 C517.1862513 186.66458759 519.42281374 188.66898463 521.70703125 190.640625 C525.77974962 194.17144321 529.72858432 197.83169117 533.67553711 201.50170898 C536.07625659 203.73054464 538.48197236 205.94841794 540.93432617 208.12060547 C547.70911308 214.12748677 554.16553129 220.41293384 560.56518555 226.81347656 C562.32777648 228.57387552 564.09824164 230.32608882 565.86914062 232.078125 C571.91447523 238.09461242 577.61456793 244.1659629 582.88256836 250.88525391 C584.7259294 253.1495662 586.67025259 255.17667734 588.76953125 257.203125 C593.54526934 261.84646639 597.61289457 267.00910549 601.76953125 272.203125 C603.26726848 274.03830736 604.76725604 275.87165556 606.26953125 277.703125 C607.01589844 278.61707031 607.76226563 279.53101563 608.53125 280.47265625 C609.98535319 282.24650988 611.44594672 284.01506998 612.9140625 285.77734375 C619.00477999 293.11912753 624.73725844 300.70263943 630.41064453 308.36816406 C631.56613709 309.92847346 632.72773464 311.48425882 633.890625 313.0390625 C638.62228486 319.43319745 643.03100441 326.02759842 647.41577148 332.66186523 C649.98420181 336.54522773 652.58673203 340.37903712 655.33203125 344.140625 C659.19503589 349.5809445 662.41738783 355.39742946 665.72290039 361.18554688 C668.13908792 365.41128168 670.59203943 369.57289705 673.26953125 373.640625 C680.99463324 385.57099834 687.49495307 398.35938592 693.75170898 411.10888672 C695.02989277 413.71014541 696.32025892 416.30443529 697.62817383 418.89086914 C702.38342658 428.29903722 706.91524092 437.79055609 711.26953125 447.390625 C711.75942535 448.46985733 711.75942535 448.46985733 712.25921631 449.57089233 C717.11383277 460.29277275 721.68867291 471.04628333 725.65869141 482.13134766 C726.73624898 485.11109039 727.84044609 488.07953981 728.95121765 491.04699707 C741.20073029 523.81220287 751.13029082 557.06830335 758.76953125 591.203125 C759.01929718 592.31657288 759.01929718 592.31657288 759.27410889 593.45251465 C773.05894908 655.0909803 773.05894908 655.0909803 774.76953125 685.203125 C774.85702637 686.37609131 774.85702637 686.37609131 774.94628906 687.57275391 C775.00187988 688.76070557 775.00187988 688.76070557 775.05859375 689.97265625 C775.09936035 690.68655518 775.14012695 691.4004541 775.18212891 692.13598633 C774.57522793 695.17659611 773.14433292 696.26329311 770.76953125 698.203125 C768.1249876 698.72000408 768.1249876 698.72000408 765.04997253 698.74406433 C763.29305242 698.77213826 763.29305242 698.77213826 761.50063896 698.80077934 C760.21547449 698.80102167 758.93031002 698.801264 757.60620117 698.80151367 C756.23173291 698.81575307 754.85728145 698.83169937 753.48285103 698.84921455 C749.71941185 698.89197166 745.95621377 698.90968739 742.19256997 698.92288995 C738.16595871 698.94099868 734.13955693 698.98114836 730.11308289 699.01811218 C722.33468965 699.08551169 714.55632776 699.13014088 706.77772802 699.16533846 C700.61676264 699.19332553 694.45588117 699.22856111 688.29498291 699.26861572 C668.91243143 699.39284961 649.53025624 699.47128062 630.14731026 699.49232674 C620.16386337 699.50337185 610.18066634 699.52859401 600.19730502 699.57186919 C593.00687325 699.6019399 585.8165088 699.61682312 578.62601537 699.62014931 C574.38857589 699.62248282 570.15139579 699.63124342 565.91402626 699.65661049 C561.99208243 699.67977643 558.07057307 699.68417189 554.14857864 699.67384911 C552.71703961 699.67335316 551.28547924 699.6796909 549.85400581 699.69340515 C547.90224677 699.71107095 545.95029862 699.70164993 543.99848938 699.69087219 C542.36477119 699.69445472 542.36477119 699.69445472 540.69804859 699.69810963 C537.044238 699.08053429 535.38731669 697.78103813 532.76953125 695.203125 C530.14977088 688.72358434 529.60303694 681.4463301 528.51953125 674.578125 C522.85565629 639.68333615 514.29214231 606.29187173 501.76953125 573.203125 C501.30530762 571.97271484 500.84108398 570.74230469 500.36279297 569.47460938 C493.54525365 551.50231088 485.76023203 534.21196822 476.76953125 517.203125 C476.2482666 516.21280273 475.72700195 515.22248047 475.18994141 514.20214844 C468.85626727 502.22596311 462.16999801 490.55130731 454.76953125 479.203125 C454.17906006 478.29071045 454.17906006 478.29071045 453.57666016 477.35986328 C441.64225306 458.96281611 428.7371318 441.02071174 414.31811523 424.48535156 C412.14487338 421.99100648 409.99994898 419.4963642 407.95532227 416.89428711 C401.51624538 408.74188637 394.32856593 401.45741836 386.96801758 394.14086914 C384.8324485 392.01604015 382.7078103 389.8807002 380.58398438 387.74414062 C373.60390203 380.75754373 366.6282666 374.1957881 358.76953125 368.203125 C357.105208 366.74479393 355.45432391 365.27057281 353.83203125 363.765625 C346.49982782 357.09894238 338.92711318 350.8663874 330.74609375 345.26953125 C327.60180154 343.08668272 324.50801722 340.84268741 321.41479492 338.58837891 C307.91948146 328.76667197 294.42896217 319.84129249 279.7265625 311.91796875 C275.94697453 309.87163023 272.25540147 307.71925293 268.58544922 305.48364258 C252.54784054 295.73326118 235.32434672 287.89952512 217.87255859 281.03613281 C215.62930504 280.14758149 213.39641575 279.23588809 211.1640625 278.3203125 C206.05175192 276.23128368 200.91763402 274.2022196 195.76953125 272.203125 C194.34640625 271.64939209 194.34640625 271.64939209 192.89453125 271.08447266 C180.74518144 266.40657333 168.6163534 262.48791694 155.95703125 259.42578125 C154.68021484 259.11193481 153.40339844 258.79808838 152.08789062 258.47473145 C148.9830045 257.7123191 145.87693313 256.95520499 142.76953125 256.203125 C142.77648409 257.62688785 142.77648409 257.62688785 142.78357738 259.07941359 C143.61693939 429.98438907 143.61693939 429.98438907 144.0859375 617.16015625 C144.08796893 618.17131978 144.08796893 618.17131978 144.09004139 619.20291086 C144.15747739 652.79300885 144.21968068 686.38311589 144.2795736 719.97322808 C144.31695738 740.93373452 144.35632387 761.89423645 144.3972168 782.85473633 C144.39857933 783.55332947 144.39994186 784.25192262 144.40134567 784.97168525 C144.40547024 787.08639129 144.4095954 789.20109732 144.41372067 791.31580335 C144.41921191 794.13083033 144.42470224 796.9458573 144.43019199 799.76088428 C144.43154934 800.45668288 144.43290669 801.15248147 144.43430517 801.86936487 C144.47861419 824.59152145 144.52130414 847.31368111 144.56376996 870.0358412 C144.57824368 877.77223849 144.59290923 885.50863538 144.60775245 893.24503197 C144.61951432 899.38542577 144.63112423 905.52581986 144.64271545 911.66621399 C144.64499239 912.86396167 144.64726933 914.06170935 144.64961527 915.29575241 C144.67400807 928.1965789 144.69578763 941.09740056 144.71018314 953.99824238 C144.71409293 957.41897857 144.71801701 960.83971475 144.72195903 964.26045091 C144.7245551 966.52837485 144.72709261 968.79629885 144.72957089 971.06422292 C144.74576624 985.3279271 144.78187931 999.59139537 144.84110214 1013.85498754 C144.88191289 1023.72972943 144.91294833 1033.60447082 144.93726228 1043.47926697 C144.955076 1050.42569137 144.98549457 1057.37189837 145.02592573 1064.31822583 C145.04752084 1068.59275767 145.05622081 1072.86724674 145.06142028 1077.141827 C145.06632891 1079.09863828 145.07636694 1081.05544553 145.09230344 1083.01219808 C145.35105138 1115.89229867 136.95901006 1148.31025686 113.9453125 1172.87109375 C112.02816143 1174.92592174 110.2426766 1177.03515169 108.45703125 1179.203125 C91.1638283 1198.78629546 62.44542405 1210.03660065 36.76953125 1212.203125 C6.59915775 1213.62096504 -27.22401853 1209.76491486 -50.79296875 1188.578125 C-52.2779701 1187.12573348 -53.75762628 1185.66784518 -55.23046875 1184.203125 C-56.57676969 1183.04805999 -57.9306616 1181.90176787 -59.29296875 1180.765625 C-86.28827952 1157.02930547 -95.66036726 1121.1626362 -98.04231641 1086.63076299 C-98.63336616 1075.86339988 -98.52111642 1065.06798672 -98.50994034 1054.28763555 C-98.50820787 1050.4467707 -98.51814525 1046.60593112 -98.52649438 1042.76507735 C-98.53952323 1036.05510203 -98.54534651 1029.34515173 -98.54625511 1022.63516426 C-98.54764019 1012.65432116 -98.56047964 1002.67351487 -98.57554285 992.6926842 C-98.6005955 975.88029363 -98.61650677 959.06790619 -98.62712479 942.25550079 C-98.63768644 925.57822247 -98.65235766 908.90095594 -98.67240524 892.22368622 C-98.67365411 891.18275338 -98.67490298 890.14182054 -98.67618969 889.06934429 C-98.68255529 883.78067843 -98.68899226 878.49201267 -98.69545607 873.20334694 C-98.74108744 835.75845492 -98.77753333 798.31355904 -98.80859375 760.86865234 C-98.83863946 724.67040419 -98.87296084 688.47216423 -98.91308594 652.27392578 C-98.91431694 651.16192769 -98.91554794 650.0499296 -98.91681625 648.90423459 C-98.92796041 638.84083367 -98.9391578 628.7774328 -98.95041714 618.71403201 C-99.02849231 548.91968387 -99.10148198 479.12533125 -99.16311639 409.33096653 C-99.1686351 403.09007416 -99.17429113 396.84918192 -99.18000984 390.60828972 C-99.2206399 346.13988997 -99.23933917 301.67154367 -99.23046875 257.203125 C-102.11955987 257.8415833 -105.00844397 258.48095414 -107.8972168 259.12084961 C-109.11797535 259.39047642 -109.11797535 259.39047642 -110.36339569 259.66555023 C-135.86068076 265.31801977 -160.17400247 274.84765829 -184.07275391 285.26464844 C-186.26010396 286.21601454 -188.45389941 287.15128948 -190.6484375 288.0859375 C-206.6443593 294.96839333 -222.04670583 303.03210091 -236.87890625 312.15234375 C-240.02934895 314.08006218 -243.2126618 315.93106301 -246.41796875 317.765625 C-258.56630398 324.85483919 -269.77088383 333.17739184 -281.03466797 341.57128906 C-282.9386239 342.98623697 -284.84947157 344.39071273 -286.765625 345.7890625 C-292.29180175 349.85347637 -297.48192541 354.09942621 -302.52734375 358.74609375 C-305.74820088 361.67372256 -309.04450775 364.50334926 -312.35546875 367.328125 C-312.96374512 367.84882568 -313.57202148 368.36952637 -314.19873047 368.90600586 C-316.59513946 370.9568481 -318.99344953 373.00433469 -321.41015625 375.03125 C-325.98000237 378.91463855 -330.23076537 383.10128119 -334.48046875 387.328125 C-335.08375 387.9267334 -335.68703125 388.5253418 -336.30859375 389.14208984 C-338.80266726 391.64520994 -341.15131959 394.10257625 -343.33984375 396.8828125 C-345.40292381 399.4147744 -347.68336006 401.16938705 -350.23046875 403.203125 C-351.71328673 404.89359075 -353.14977123 406.62556855 -354.54296875 408.390625 C-357.36191189 411.90847966 -360.20978565 415.35685929 -363.23046875 418.703125 C-371.34664789 427.76379047 -378.69158911 437.33431572 -385.7890625 447.19970703 C-386.74479262 448.52808125 -387.70310119 449.85460438 -388.6640625 451.17919922 C-414.17671875 486.38009655 -435.15870926 524.82395701 -451.23046875 565.203125 C-451.64006836 566.21536133 -452.04966797 567.22759766 -452.47167969 568.27050781 C-466.78241102 603.69543292 -476.4509743 640.30435788 -483.90625 677.71484375 C-484.34557019 679.87802887 -484.78700324 682.04078589 -485.23046875 684.203125 C-485.47071777 685.39502441 -485.7109668 686.58692383 -485.95849609 687.81494141 C-486.20680176 688.9807373 -486.45510742 690.1465332 -486.7109375 691.34765625 C-486.93031982 692.39928955 -487.14970215 693.45092285 -487.37573242 694.53442383 C-488.2651122 697.31129053 -488.92457085 698.47060843 -491.23046875 700.203125 C-495.24380307 701.54090311 -499.10442203 701.34767454 -503.28927612 701.34356689 C-504.22752861 701.34653802 -505.1657811 701.34950914 -506.13246548 701.3525703 C-509.28997941 701.36127186 -512.44745549 701.36276677 -515.60498047 701.36425781 C-517.86329225 701.3688849 -520.12160325 701.37390942 -522.37991333 701.37930298 C-528.52450324 701.3924383 -534.66908222 701.39887399 -540.81368399 701.40331364 C-544.64988064 701.40624216 -548.48607429 701.41034651 -552.32226944 701.41481781 C-562.94238854 701.42692733 -573.56250501 701.4373095 -584.18263054 701.4406929 C-584.86231795 701.44091247 -585.54200537 701.44113203 -586.24228937 701.44135825 C-586.92360581 701.44157653 -587.60492225 701.44179481 -588.30688465 701.4420197 C-589.68749992 701.44246317 -591.0681152 701.44290973 -592.44873047 701.44335938 C-593.13356381 701.4435808 -593.81839715 701.44380223 -594.52398302 701.44403037 C-605.62347071 701.44797933 -616.72289279 701.46543668 -627.82235514 701.4887189 C-639.21639428 701.51242627 -650.61038939 701.5246364 -662.00445759 701.52606082 C-668.4024942 701.52711062 -674.80043825 701.53305565 -681.198452 701.55088043 C-687.21484355 701.5673158 -693.23107253 701.56953868 -699.24747849 701.56074142 C-701.45781387 701.55996865 -703.66815783 701.56434521 -705.87847137 701.57419968 C-708.89174116 701.58684809 -711.9044289 701.581081 -714.91769409 701.57061768 C-715.79600163 701.57867408 -716.67430918 701.58673048 -717.5792321 701.59503102 C-722.2574239 701.55693751 -725.47007252 701.31538529 -729.23046875 698.203125 C-731.17322477 692.76711367 -729.72766677 686.88878194 -728.89453125 681.31640625 C-728.74006531 680.24256683 -728.58559937 679.16872742 -728.42645264 678.06234741 C-727.91484673 674.54487553 -727.38679403 671.03016921 -726.85546875 667.515625 C-726.6760675 666.31306061 -726.49666626 665.11049622 -726.31182861 663.87149048 C-722.84895886 640.7750267 -718.43937024 617.96483122 -713.23046875 595.203125 C-712.94429687 593.94854492 -712.658125 592.69396484 -712.36328125 591.40136719 C-710.95638767 585.29496153 -709.48028409 579.20917807 -707.953125 573.13183594 C-707.18241896 570.00839347 -706.45447611 566.87676807 -705.73046875 563.7421875 C-701.32349586 544.96041121 -695.44387733 526.83062525 -689.07940674 508.63720703 C-688.22224506 506.17954597 -687.37373219 503.71903473 -686.52685547 501.2578125 C-677.95653449 476.42014522 -667.88890094 452.58896456 -656.4934082 428.91845703 C-654.92327773 425.65621767 -653.37145534 422.38607281 -651.83276367 419.10888672 C-651.43672943 418.26655487 -651.04069519 417.42422302 -650.63265991 416.55636597 C-649.88647231 414.96755513 -649.1421044 413.37788764 -648.40005493 411.78713989 C-642.30210586 398.82803582 -634.90007543 386.53262399 -627.59765625 374.2265625 C-626.09364963 371.68514278 -624.61709112 369.13217139 -623.17578125 366.5546875 C-618.77568404 358.69105996 -614.01913014 351.17006525 -608.94775391 343.73193359 C-607.24756622 341.22830209 -605.55906395 338.71701766 -603.8731842 336.20373535 C-602.20757319 333.72203408 -600.53776762 331.24317062 -598.86734009 328.76470947 C-598.0380721 327.53311143 -597.21005089 326.30067281 -596.38339233 325.06732178 C-591.85077639 318.31014791 -587.20101914 311.73931901 -582.04394531 305.43530273 C-579.38995775 302.16855418 -576.91172492 298.78006576 -574.41796875 295.390625 C-569.7709259 289.13410769 -564.90866932 283.13112072 -559.8203125 277.23046875 C-557.35494463 274.34862848 -554.97493856 271.41393562 -552.60546875 268.453125 C-549.1736413 264.22745846 -545.50515034 260.42375176 -541.60037231 256.63790894 C-539.23967882 254.21258721 -537.15402971 251.69627602 -535.05419922 249.04345703 C-530.51878853 243.45265021 -525.65031911 238.33270632 -520.55078125 233.2578125 C-519.6573703 232.3624881 -518.76395935 231.4671637 -517.84347534 230.54470825 C-515.96852974 228.66841228 -514.09175288 226.79421536 -512.21142578 224.92333984 C-509.83267926 222.55598559 -507.46303153 220.17975898 -505.09596443 217.80073357 C-502.79414543 215.48984371 -500.48460434 213.18670126 -498.17578125 210.8828125 C-497.34209015 210.04507294 -496.50839905 209.20733337 -495.64944458 208.34420776 C-490.53375898 203.26828945 -485.21760651 198.60172414 -479.58920288 194.10012817 C-476.85557878 191.90162113 -474.29213811 189.59845219 -471.73046875 187.203125 C-466.40072482 182.30938269 -460.86276624 177.74205184 -455.23046875 173.203125 C-454.01219312 172.20543695 -452.79479568 171.20667589 -451.578125 170.20703125 C-439.68837105 160.45532758 -427.66768511 150.79977972 -414.96875 142.11328125 C-412.75249537 140.56727767 -410.5721439 138.9911336 -408.3984375 137.38671875 C-390.56496034 124.2517975 -371.85086318 112.81852007 -352.609375 101.87109375 C-349.28063636 99.97627729 -345.97291812 98.05786585 -342.70654297 96.05786133 C-333.43897746 90.38418216 -323.96842471 85.33316176 -314.23046875 80.515625 C-313.46021362 80.13249146 -312.6899585 79.74935791 -311.8963623 79.35461426 C-272.56918852 59.80913608 -272.56918852 59.80913608 -252.09570312 52.5949707 C-248.74456707 51.40389987 -245.43509753 50.12290287 -242.12750244 48.81642151 C-232.16303031 44.88096928 -222.11589635 41.23496388 -211.98046875 37.765625 C-210.75639816 37.34600494 -210.75639816 37.34600494 -209.50759888 36.91790771 C-193.91384811 31.59549771 -178.23267888 27.14737791 -162.23046875 23.203125 C-159.81504847 22.59397081 -157.39968406 21.98459502 -154.984375 21.375 C-104.4681096 8.76634151 -52.16236537 0.11291365 0 0 Z " fill="#E54D23" transform="translate(1177.23046875,100.796875)"/>
<path d="M0 0 C1.40103012 -0.00339833 1.40103012 -0.00339833 2.83036387 -0.00686532 C5.97950176 -0.01322675 9.12859685 -0.01237459 12.27774048 -0.0115509 C14.52767493 -0.01454107 16.77760886 -0.01794326 19.02754211 -0.02172852 C25.15353268 -0.03058741 31.2795093 -0.03290742 37.40550566 -0.0335443 C42.51258004 -0.03449189 47.61965114 -0.03816847 52.72672427 -0.0417164 C64.0834875 -0.04940209 75.44024206 -0.05238437 86.79700701 -0.05171105 C87.81976744 -0.05165111 87.81976744 -0.05165111 88.8631897 -0.05158997 C89.54586024 -0.05154909 90.22853077 -0.0515082 90.9318883 -0.05146609 C101.99653354 -0.0510596 113.06114475 -0.06062891 124.12578015 -0.07472833 C135.48023091 -0.08908316 146.8346599 -0.09581575 158.18912184 -0.09513456 C164.56643865 -0.09487909 170.94371697 -0.09775702 177.32102585 -0.10831261 C183.31767732 -0.11796656 189.31425329 -0.11809139 195.31090736 -0.11079597 C197.51520841 -0.10974675 199.71951408 -0.11213292 201.92380714 -0.11815643 C204.9264268 -0.12583169 207.92878283 -0.12126122 210.93139648 -0.11352539 C212.24841382 -0.12124074 212.24841382 -0.12124074 213.59203756 -0.12911195 C214.39646594 -0.12451315 215.20089432 -0.11991435 216.02969933 -0.1151762 C216.72274394 -0.11539357 217.41578856 -0.11561094 218.12983453 -0.11583489 C220.51186701 0.1870061 222.05986994 0.86045692 224.09268188 2.13371277 C226.3795412 5.56400174 226.87917458 8.57127886 227.53799438 12.54386902 C227.80849578 14.08990695 228.07934476 15.6358841 228.35049438 17.18180847 C228.49132446 17.99847992 228.63215454 18.81515137 228.7772522 19.65657043 C236.55162907 64.48582966 248.15335077 108.23984828 266.09268188 150.13371277 C266.52387329 151.1548114 266.9550647 152.17591003 267.39932251 153.22795105 C283.35771124 190.89225978 303.87907512 225.72658512 328.66885376 258.25236511 C329.65766837 259.5589161 330.63752951 260.8722723 331.61026001 262.19084167 C334.54745222 266.16727609 337.57932133 269.89816463 340.96768188 273.50871277 C344.17015725 276.97925782 347.23587016 280.48443318 350.15518188 284.19621277 C355.70514935 291.251637 361.73068674 297.80720993 368.09268188 304.13371277 C369.51275546 305.57563096 370.93193408 307.0184308 372.35049438 308.46183777 C383.46337473 319.77137736 383.46337473 319.77137736 395.51065063 330.04777527 C398.58718368 332.53320439 401.41510096 335.22332699 404.28018188 337.94621277 C410.84854672 344.13447533 417.9470421 349.46834506 425.23379517 354.77580261 C427.87241293 356.70330353 430.48241996 358.66804741 433.09268188 360.63371277 C434.04916626 361.34785339 435.00565063 362.06199402 435.99111938 362.79777527 C438.25987764 364.5064874 440.51229378 366.22964894 442.75674438 367.96965027 C451.76269236 374.90709032 461.05477042 380.98891303 470.83242798 386.77922058 C473.04818339 388.10704636 475.23896101 389.46808727 477.42471313 390.84465027 C540.5371713 430.48365305 616.83970444 454.2509698 691.09268188 460.13371277 C692.11474731 460.22128845 693.13681274 460.30886414 694.18984985 460.39909363 C706.8436248 461.34816908 719.50514404 461.31981172 732.18887329 461.3190155 C736.05666271 461.3211925 739.92416174 461.33937952 743.79190063 461.35832214 C759.32765178 461.39344226 774.64215949 460.76688632 790.09268188 459.13371277 C791.08895096 459.02876495 792.08522003 458.92381714 793.11167908 458.81568909 C819.13686439 456.03049613 844.69257682 450.97322508 869.91055298 444.00724792 C873.01382695 443.15535946 876.12389573 442.33474506 879.23721313 441.52043152 C937.03493238 426.18823167 993.75305102 398.63587199 1041.09268188 362.13371277 C1042.33829976 361.18386963 1043.58436871 360.23461765 1044.83096313 359.28605652 C1047.93214625 356.91977783 1051.01237485 354.52710701 1054.09268188 352.13371277 C1055.30117798 351.21718933 1055.30117798 351.21718933 1056.53408813 350.28215027 C1061.3518743 346.61225403 1065.86087646 342.7036136 1070.32705688 338.61418152 C1072.25291499 336.88689353 1074.18160482 335.20915137 1076.17080688 333.55949402 C1083.53461941 327.43660211 1090.44395886 320.96929037 1097.21768188 314.19621277 C1098.03551147 313.37910828 1098.85334106 312.56200378 1099.69595337 311.72013855 C1103.38780638 307.99403401 1106.85734672 304.26775214 1110.09268188 300.13371277 C1111.74594078 298.45374533 1113.41336074 296.78762814 1115.09268188 295.13371277 C1121.00986111 288.88043069 1126.69175993 282.54687884 1131.99502563 275.76261902 C1134.01604053 273.22976423 1136.09975655 270.76886396 1138.21279907 268.31315613 C1142.04670416 263.84913563 1145.82425671 259.35303755 1149.34268188 254.63371277 C1150.18572876 253.50449402 1150.18572876 253.50449402 1151.04580688 252.35246277 C1152.37814937 249.52869213 1151.80365924 248.1028721 1151.09268188 245.13371277 C1148.62293433 245.23485729 1146.15320698 245.33645965 1143.6835022 245.43864441 C1141.49799896 245.52873918 1139.31244996 245.61772934 1137.12686157 245.70573425 C1132.13116044 245.90976483 1127.13810209 246.11899154 1122.14736938 246.42277527 C1094.23623803 248.06646265 1065.50963104 248.8504773 1037.82119751 244.55265808 C1035.07716547 244.13133033 1032.33024201 243.76331784 1029.57705688 243.40715027 C1002.07537139 239.75237415 971.71920654 226.74668848 954.09268188 204.13371277 C954.09268188 203.47371277 954.09268188 202.81371277 954.09268188 202.13371277 C953.43268188 202.13371277 952.77268188 202.13371277 952.09268188 202.13371277 C950.87515259 200.79533386 950.87515259 200.79533386 949.51846313 198.90715027 C948.76931641 197.86470154 948.76931641 197.86470154 948.0050354 196.80119324 C947.47708374 196.04467468 946.94913208 195.28815613 946.40518188 194.50871277 C945.59488525 193.34879822 945.59488525 193.34879822 944.76821899 192.16545105 C926.52698861 165.55966906 920.55409806 132.74544121 926.09268188 101.13371277 C929.41958384 83.90712723 935.86353023 67.45452508 946.09268188 53.13371277 C946.56447876 52.44019714 947.03627563 51.74668152 947.52236938 51.03215027 C967.72559634 23.08260832 997.42873263 7.0712424 1031.03799438 1.64152527 C1032.38849457 1.46397796 1033.74015469 1.29509427 1035.09268188 1.13371277 C1035.80954403 1.0469457 1036.52640617 0.96017863 1037.2649914 0.87078226 C1046.17110868 -0.06709234 1055.06737295 -0.01802423 1064.01000977 -0.02018738 C1065.82260342 -0.02420858 1067.63519618 -0.02864789 1069.44778788 -0.03346694 C1074.40717067 -0.04536261 1079.36654376 -0.05106436 1084.32593799 -0.05564809 C1089.68240662 -0.06163002 1095.03886383 -0.07323238 1100.39532471 -0.0839386 C1113.31188671 -0.10838947 1126.22845246 -0.12307172 1139.14503044 -0.13599867 C1142.79271576 -0.13971363 1146.4404007 -0.14368653 1150.08808565 -0.14775133 C1172.74585052 -0.17297268 1195.40361604 -0.19502253 1218.06139183 -0.20747948 C1223.30147682 -0.21040904 1228.54156179 -0.21337075 1233.78164673 -0.21638489 C1235.08400393 -0.21713094 1236.38636113 -0.21787699 1237.7281837 -0.21864565 C1258.8632225 -0.23132122 1279.9981776 -0.26458004 1301.13317721 -0.30618672 C1322.83317828 -0.34855612 1344.53313639 -0.37216802 1366.23317873 -0.37740004 C1378.41698823 -0.380818 1390.60066646 -0.39262009 1402.78443527 -0.42550278 C1413.15039426 -0.4534346 1423.51619501 -0.46453242 1433.88218872 -0.45330732 C1439.17300726 -0.4481047 1444.46349403 -0.45111177 1449.75426483 -0.47577286 C1454.593748 -0.49814331 1459.4326587 -0.49762121 1464.27215107 -0.47856899 C1466.02628158 -0.47575193 1467.78044992 -0.48146136 1469.53451924 -0.49638192 C1471.9129708 -0.51538312 1474.28935862 -0.50377313 1476.66776085 -0.48431969 C1477.35418476 -0.49716891 1478.04060867 -0.51001813 1478.74783331 -0.52325672 C1482.50627366 -0.45536788 1484.04939843 0.09958041 1487.03925288 2.45731294 C1489.28622697 5.3859757 1489.5461042 6.86534905 1489.17686462 10.49909973 C1489.03078011 11.51706131 1489.03078011 11.51706131 1488.88174438 12.55558777 C1488.75880257 13.64110428 1488.75880257 13.64110428 1488.63337708 14.74855042 C1488.35572332 17.13119048 1488.03789981 19.50644753 1487.71768188 21.88371277 C1487.50987149 23.56172892 1487.30375908 25.23995615 1487.09927368 26.91838074 C1486.56940297 31.19208453 1486.00186337 35.45978407 1485.41940308 39.72660828 C1485.11714053 41.95351475 1484.82425971 44.18138167 1484.53555298 46.41007996 C1473.85514488 128.28722907 1449.14628248 210.39823426 1411.26846313 283.83781433 C1410.18919418 285.94525728 1409.13421617 288.06211013 1408.09268188 290.18840027 C1399.67470284 307.37292892 1390.63213623 324.24992118 1380.2460022 340.32853699 C1379.13721635 342.06400746 1378.0589659 343.81422309 1376.99111938 345.57511902 C1371.57711062 354.4715666 1365.80815423 363.12559252 1359.98492432 371.75746155 C1359.0723312 373.11021816 1358.1609701 374.4638069 1357.25097656 375.8183136 C1351.86615884 383.82462342 1346.30889032 391.62388394 1340.36270142 399.2240448 C1338.02027977 402.22651643 1335.7392563 405.26492198 1333.46768188 408.32121277 C1321.88998323 423.78513194 1309.22155608 438.35187595 1296.28799438 452.68840027 C1294.33298133 454.86604826 1292.39414021 457.055812 1290.46768188 459.25871277 C1289.6265686 460.21970886 1289.6265686 460.21970886 1288.76846313 461.20011902 C1287.63131128 462.51221731 1286.50398075 463.83287957 1285.38565063 465.16105652 C1282.50665993 468.54695755 1279.61445606 471.63658886 1276.21768188 474.50871277 C1272.2024301 477.9115999 1268.79543983 481.7096 1265.31533813 485.64933777 C1260.29748072 491.2580501 1254.91137585 496.38873181 1249.21377563 501.29777527 C1244.19343141 505.64319292 1239.28285486 510.1181188 1234.39736938 514.61418152 C1228.14110366 520.36245986 1221.72291099 525.82263198 1215.09268188 531.13371277 C1213.91423723 532.08155579 1212.73585497 533.02947639 1211.55752563 533.97746277 C1208.37456439 536.53447907 1205.18393347 539.08170064 1201.98916626 541.62394714 C1200.75252806 542.60841813 1199.5168057 543.59404098 1198.28213501 544.58097839 C1171.38008616 566.07289145 1142.39605691 585.01065199 1112.5519104 602.13273621 C1109.97962214 603.62066581 1107.42000767 605.1240421 1104.86587524 606.64250183 C1093.87395886 613.144583 1082.6677886 619.00314424 1071.16665649 624.55119324 C1068.39262598 625.88977148 1065.62417723 627.23938487 1062.85635376 628.59074402 C1045.69919652 636.94083842 1028.37668656 644.32451984 1010.53018188 651.07121277 C1009.60747498 651.42132416 1008.68476807 651.77143555 1007.73410034 652.13215637 C993.93227011 657.3675034 980.11099818 662.50230179 966.09268188 667.13371277 C965.43542114 667.35494812 964.7781604 667.57618347 964.10098267 667.80412292 C908.07261945 686.59669682 847.91656971 697.06969127 789.09268188 701.13371277 C788.37515747 701.18565796 787.65763306 701.23760315 786.91836548 701.29112244 C770.5020603 702.45023527 754.04135932 702.37777857 737.59268188 702.38371277 C736.46917517 702.38459648 736.46917517 702.38459648 735.32297134 702.38549805 C709.81351087 702.39962739 684.48642408 701.77012504 659.09268188 699.13371277 C658.03343506 699.02479706 658.03343506 699.02479706 656.95278931 698.91368103 C647.29433616 697.90766259 637.68844247 696.6227101 628.09268188 695.13371277 C626.15860474 694.83473083 626.15860474 694.83473083 624.18545532 694.52970886 C572.07222431 686.34493023 521.4150237 672.71512347 472.09268188 654.13371277 C471.30574951 653.83831604 470.51881714 653.54291931 469.70803833 653.23857117 C448.53361452 645.27627401 428.14716046 636.12101928 407.91151428 626.01722717 C402.96339467 623.55040338 397.97611865 621.17994152 392.96133423 618.85124207 C385.20957907 615.24710232 377.82121527 611.39729336 370.56143188 606.87590027 C366.83157162 604.56000919 363.04647325 602.34395606 359.24893188 600.14152527 C333.61267102 585.26716439 333.61267102 585.26716439 322.09268188 577.13371277 C321.07391968 576.41707458 321.07391968 576.41707458 320.03457642 575.68595886 C317.09108283 573.61349239 314.14942565 571.53864289 311.21694946 569.4506073 C307.21110888 566.60207071 303.16441318 563.857134 299.03018188 561.19621277 C293.38525364 557.47938759 288.21853546 553.27553715 283.01211548 548.97941589 C279.13042441 545.77783041 275.21069399 542.67804335 271.15518188 539.69621277 C260.39450203 531.72479508 250.0754053 523.10844764 240.20205688 514.06340027 C238.25478687 512.28200881 236.27743718 510.54611506 234.28018188 508.82121277 C222.67757387 498.67406364 211.6937855 487.92120976 200.79824829 477.02458191 C198.33799802 474.56653309 195.8698211 472.11663057 193.40127563 469.66691589 C186.16324083 462.45377505 179.02504679 455.32555198 172.7616272 447.23356628 C171.15236807 445.20880944 169.45669275 443.42328586 167.59268188 441.63371277 C162.98482042 437.17449199 159.1039294 432.12397662 155.09268188 427.13371277 C153.67654392 425.42494113 152.25987364 423.71661053 150.84268188 422.00871277 C145.77279648 415.81811585 140.94131447 409.44935064 136.10049438 403.07902527 C133.87820154 400.15567639 131.62503624 397.26054082 129.34268188 394.38371277 C122.38941893 385.45354172 116.23989982 375.93470434 110.16201782 366.39738464 C107.75338322 362.63287209 105.26638766 358.95203464 102.67080688 355.31340027 C98.95169549 350.03177712 95.68526902 344.54379293 92.46768188 338.94621277 C91.86939575 337.91174011 91.27110962 336.87726746 90.6546936 335.81144714 C88.79474963 332.58891223 86.94292403 329.36182611 85.09268188 326.13371277 C84.50551392 325.11325867 83.91834595 324.09280457 83.31338501 323.04142761 C76.53080485 311.24057738 69.99323546 299.39914287 64.09268188 287.13371277 C63.14757306 285.18830131 62.20224317 283.24299723 61.25674438 281.29777527 C45.52164118 248.82112313 31.8182263 215.68147929 20.79629517 181.30070496 C20.04953845 179.00083936 19.27343633 176.71210941 18.49502563 174.42277527 C2.80675989 127.61590453 -6.49803189 77.43492745 -12.48300171 28.55656433 C-12.88083448 25.3473495 -13.30783051 22.14322347 -13.73934937 18.93840027 C-13.96398382 17.12874889 -14.18678552 15.31886859 -14.40731812 13.50871277 C-14.52099731 12.70369324 -14.63467651 11.89867371 -14.75180054 11.06925964 C-15.15803184 7.44381434 -15.29676032 5.6535191 -13.06356812 2.67277527 C-8.80622644 -0.36597948 -5.07323934 -0.00890274 0 0 Z " fill="#0B7141" transform="translate(462.9073181152344,912.8662872314453)"/>
<path d="M0 0 C0.90524414 -0.00307663 1.81048828 -0.00615326 2.74316406 -0.00932312 C4.21027832 0.00145515 4.21027832 0.00145515 5.70703125 0.01245117 C7.22635254 0.0131385 7.22635254 0.0131385 8.77636719 0.01383972 C10.92497932 0.01686358 13.07358923 0.02475384 15.22216797 0.03710938 C18.47892212 0.05519442 21.73538871 0.05762011 24.9921875 0.05737305 C27.08463783 0.0622954 29.17708626 0.06812681 31.26953125 0.07495117 C32.71235474 0.07662041 32.71235474 0.07662041 34.18432617 0.07832336 C38.96148799 0.11107871 43.72916373 0.24475084 48.49755859 0.54125977 C49.81401871 0.61913223 49.81401871 0.61913223 51.15707397 0.69857788 C55.69298151 1.7437122 57.7213782 5.34015602 60.14453125 9.05541992 C60.69391357 9.83369141 61.2432959 10.61196289 61.80932617 11.41381836 C62.90775687 12.97146997 63.99335982 14.53825913 65.06494141 16.11450195 C66.90429388 18.80592103 68.85649081 21.40025828 70.83203125 23.99291992 C71.53328125 24.93135742 72.23453125 25.86979492 72.95703125 26.83666992 C76.38714072 31.41014922 79.86381796 35.94832274 83.33203125 40.49291992 C90.90477855 50.41859651 98.41802396 60.38723986 105.87109375 70.40307617 C109.82466105 75.70476801 113.84647006 80.93792701 117.95703125 86.11791992 C121.60090286 90.71222945 125.0891841 95.38040979 128.45703125 100.18041992 C131.97064295 105.18663239 135.66410306 109.99528098 139.51953125 114.74291992 C143.76818277 119.97767322 147.78452316 125.3115382 151.65795898 130.82836914 C156.06379313 137.07689768 160.73294209 143.11696217 165.3984375 149.17260742 C168.83915772 153.64208307 172.18958946 158.17464014 175.51953125 162.72729492 C177.67824885 165.44255691 180.05187551 167.808748 182.51953125 170.24291992 C182.52311378 168.95605805 182.52311378 168.95605805 182.52676868 167.64319897 C182.58585388 146.78740773 182.66136218 125.93173267 182.75524616 105.07606792 C182.80024959 94.99050121 182.83965369 84.90497016 182.8659668 74.81933594 C182.88891013 66.03071974 182.92226689 57.24221599 182.96823281 48.45368892 C182.99221463 43.79838525 183.01091083 39.14319329 183.01714516 34.48782921 C183.02317368 30.10885024 183.04309204 25.73015731 183.07380676 21.35128403 C183.08262296 19.74161957 183.0863022 18.13191778 183.08453941 16.52223015 C183.08289551 14.32903595 183.09950854 12.13672296 183.12080383 9.94364929 C183.1254128 8.71489924 183.13002176 7.4861492 183.13477039 6.2201643 C183.51953125 3.24291992 183.51953125 3.24291992 184.8808012 1.3475132 C187.34827852 -0.31570086 189.3683163 -0.1311638 192.3203125 -0.12939453 C193.51164795 -0.13562332 194.7029834 -0.14185211 195.93041992 -0.14826965 C197.21795166 -0.13905991 198.5054834 -0.12985016 199.83203125 -0.12036133 C201.16577148 -0.11984262 202.49951248 -0.12036074 203.83325195 -0.12187195 C206.62755762 -0.12178226 209.42157455 -0.11136057 212.21582031 -0.09326172 C215.7971661 -0.07057437 219.37809005 -0.07003072 222.95948792 -0.07677937 C225.71329496 -0.08012126 228.46700587 -0.07348517 231.22079468 -0.06365013 C233.18340257 -0.05793019 235.14602684 -0.05923389 237.10864258 -0.06062317 C238.29997803 -0.05109116 239.49131348 -0.04155914 240.71875 -0.03173828 C242.29402466 -0.02482719 242.29402466 -0.02482719 243.90112305 -0.01777649 C246.51953125 0.24291992 246.51953125 0.24291992 249.51953125 2.24291992 C249.89442807 4.31644392 249.89442807 4.31644392 249.89426136 6.93437958 C249.9014679 7.92989602 249.90867445 8.92541245 249.91609937 9.95109606 C249.90872508 11.0528264 249.9013508 12.15455674 249.89375305 13.28967285 C249.89772746 14.45378299 249.90170186 15.61789313 249.90579671 16.81727934 C249.91378264 20.05846832 249.90822888 23.29931565 249.89704621 26.54048514 C249.88823117 30.03201252 249.89663986 33.52350297 249.90290833 37.01502991 C249.91241419 43.85884748 249.90578091 50.70255988 249.89364538 57.54636967 C249.88004911 65.5095162 249.88166114 73.47263745 249.88377871 81.43579262 C249.88697121 95.64024082 249.87528597 109.84463892 249.85571289 124.04907227 C249.83670762 137.84498622 249.82962502 151.64084147 249.83520508 165.43676758 C249.84125753 180.44508485 249.84109562 195.45337626 249.82971925 210.46169138 C249.8285119 212.0608511 249.82730592 213.66001081 249.8261013 215.25917053 C249.825196 216.43952057 249.825196 216.43952057 249.8242724 217.64371607 C249.82038665 223.19973112 249.82078941 228.75573657 249.82268715 234.31175232 C249.82480531 241.07896826 249.81961392 247.84613266 249.8050736 254.61333406 C249.79781043 258.06872333 249.79376885 261.52403739 249.79831696 264.97943306 C249.80151591 268.71842887 249.79251483 272.45719484 249.78022766 276.19616699 C249.78400698 277.29789733 249.78778631 278.39962768 249.79168016 279.53474379 C249.78584796 280.53026022 249.78001577 281.52577666 249.77400684 282.55146027 C249.77314007 283.41537903 249.77227329 284.2792978 249.77138025 285.16939592 C249.51953125 287.24291992 249.51953125 287.24291992 247.51953125 289.24291992 C245.14872742 289.51707458 245.14872742 289.51707458 242.1394043 289.54931641 C240.45206429 289.5732975 240.45206429 289.5732975 238.7306366 289.59776306 C237.50983902 289.60312576 236.28904144 289.60848846 235.03125 289.61401367 C233.7807637 289.62304214 232.5302774 289.63207062 231.24189758 289.64137268 C228.59121312 289.65590584 225.94096052 289.66556452 223.2902832 289.66845703 C219.90040944 289.67383327 216.51173175 289.71147301 213.12219524 289.75720119 C209.88361795 289.79418223 206.64501007 289.7954892 203.40625 289.80151367 C202.19152512 289.82104599 200.97680023 289.84057831 199.7252655 289.86070251 C191.29598706 289.81553932 191.29598706 289.81553932 187.40966797 286.94946289 C186.78592285 286.05630371 186.16217773 285.16314453 185.51953125 284.24291992 C184.69666626 283.26971802 184.69666626 283.26971802 183.85717773 282.27685547 C183.37321533 281.65077393 182.88925293 281.02469238 182.390625 280.37963867 C181.83697266 279.66622314 181.28332031 278.95280762 180.71289062 278.21777344 C179.84374023 277.08553345 179.84374023 277.08553345 178.95703125 275.93041992 C178.34279297 275.13498779 177.72855469 274.33955566 177.09570312 273.52001953 C171.71238009 266.53183845 166.39360586 259.49655521 161.13476562 252.41430664 C159.31559851 249.96876972 157.48755654 247.52996615 155.66015625 245.09057617 C154.36290123 243.34997391 153.06602024 241.60909283 151.76953125 239.86791992 C151.14820313 239.04042236 150.526875 238.2129248 149.88671875 237.36035156 C149.31695313 236.59198975 148.7471875 235.82362793 148.16015625 235.03198242 C147.65000977 234.3482959 147.13986328 233.66460938 146.61425781 232.96020508 C145.51953125 231.24291992 145.51953125 231.24291992 145.51953125 229.24291992 C144.85953125 229.24291992 144.19953125 229.24291992 143.51953125 229.24291992 C141.60533025 226.88348546 139.80104718 224.51243425 138.01953125 222.05541992 C136.92915567 220.57438378 135.83799921 219.09392226 134.74609375 217.61401367 C134.20114258 216.8726416 133.65619141 216.13126953 133.09472656 215.36743164 C130.90609916 212.41556622 128.65338347 209.51613833 126.39453125 206.61791992 C123.01020944 202.25635414 119.7638458 197.81652865 116.58203125 193.30541992 C112.88844327 188.07738453 109.03992241 183.00963068 105.05810547 177.99853516 C100.70355288 172.50870476 96.45012133 166.94420543 92.20703125 161.36791992 C91.53720215 160.4880542 90.86737305 159.60818848 90.17724609 158.70166016 C86.27095589 153.56388056 82.38633791 148.41045717 78.51953125 143.24291992 C77.51968817 141.90946891 76.51968683 140.57613655 75.51953125 139.24291992 C73.51953125 136.57625326 71.51953125 133.90958659 69.51953125 131.24291992 C69.0296875 130.59194336 68.53984375 129.9409668 68.03515625 129.27026367 C66.97481506 127.85192069 65.92344374 126.42684773 64.87890625 124.99682617 C64.3478125 124.27366211 63.81671875 123.55049805 63.26953125 122.80541992 C62.79 122.14670898 62.31046875 121.48799805 61.81640625 120.80932617 C60.58501581 119.10743472 60.58501581 119.10743472 58.51953125 118.24291992 C58.52229663 119.10598157 58.52506201 119.96904322 58.52791119 120.85825825 C58.5941067 141.83912514 58.64378046 162.81997408 58.67496777 183.80092335 C58.69044981 193.94707293 58.71156483 204.0931529 58.74584961 214.23925781 C58.77571108 223.08054499 58.79509652 231.92178176 58.80179673 240.76311797 C58.80571452 245.44641367 58.81494951 250.12956515 58.83672142 254.81281471 C58.85703525 259.21798183 58.86337544 263.62294486 58.85885429 268.02815437 C58.85968179 269.64752561 58.86567781 271.26690345 58.87714767 272.88623428 C58.89201238 275.092485 58.88850751 277.29795904 58.8802948 279.50422668 C58.88306018 280.74035108 58.88582556 281.97647547 58.88867474 283.25005817 C58.51953125 286.24291992 58.51953125 286.24291992 57.16342735 288.14027882 C54.66834766 289.81385017 52.59056711 289.62446336 49.61108398 289.63110352 C48.39650009 289.64056 47.1819162 289.65001648 45.93052673 289.65975952 C44.61798416 289.65368683 43.30544159 289.64761414 41.953125 289.64135742 C40.5945673 289.64337822 39.23601065 289.6462897 37.87745667 289.65005493 C35.03188741 289.65447659 32.18660084 289.64805172 29.34106445 289.6340332 C25.69001288 289.61692463 22.03962206 289.62679332 18.38859463 289.6447506 C15.58420307 289.65557912 12.77996882 289.65214678 9.97557259 289.64436722 C7.97357378 289.64138785 5.9715689 289.6505113 3.96958923 289.65975952 C2.7581575 289.65030304 1.54672577 289.64084656 0.29858398 289.63110352 C-0.77158463 289.62871674 -1.84175323 289.62632996 -2.9443512 289.62387085 C-3.78126999 289.49815704 -4.61818878 289.37244324 -5.48046875 289.24291992 C-7.63373035 286.01302753 -7.73119688 285.16436185 -7.73494434 281.44402981 C-7.74369263 279.95299367 -7.74369263 279.95299367 -7.75261766 278.43183559 C-7.74883833 277.33690904 -7.74505901 276.24198249 -7.74116516 275.11387634 C-7.74499071 273.95299533 -7.74881626 272.79211432 -7.75275773 271.59605509 C-7.76131005 268.36860055 -7.76084686 265.14129062 -7.75657713 261.91383207 C-7.75411646 258.43527413 -7.76311576 254.95674329 -7.77061462 251.47819519 C-7.78338121 244.66194815 -7.78515295 237.84574047 -7.78281436 231.02948349 C-7.78103353 225.49180962 -7.78277577 219.95414773 -7.7870388 214.4164753 C-7.78763399 213.62925662 -7.78822918 212.84203794 -7.78884241 212.03096415 C-7.79005411 210.43191222 -7.79126825 208.83286028 -7.79248478 207.23380835 C-7.80336748 192.22971974 -7.80119414 177.22565359 -7.79509994 162.2215637 C-7.78992786 148.48170856 -7.80119257 134.74192425 -7.82019816 121.00208312 C-7.83954737 106.90619707 -7.84783784 92.81034459 -7.8440749 78.71444517 C-7.84215871 70.79571519 -7.84469115 62.87704553 -7.85878944 54.95832634 C-7.870667 48.21857294 -7.87214899 41.47891703 -7.85999928 34.73916238 C-7.85408544 31.29790255 -7.85307965 27.85682135 -7.86500168 24.41557312 C-7.87536065 20.69187328 -7.86745615 16.96866136 -7.85469055 13.24497986 C-7.86206484 12.14782258 -7.86943912 11.05066531 -7.87703687 9.92026085 C-7.86622705 8.43313633 -7.86622705 8.43313633 -7.85519886 6.91596889 C-7.85525388 6.05562996 -7.85530889 5.19529103 -7.85536557 4.30888122 C-7.73164962 3.62711399 -7.60793367 2.94534676 -7.48046875 2.24291992 C-4.32578785 0.13979932 -3.59688961 -0.00644645 0 0 Z " fill="#E54D23" transform="translate(781.48046875,1838.757080078125)"/>
<path d="M0 0 C1.14791519 -0.01253311 2.29583038 -0.02506622 3.47853088 -0.03797913 C4.70885544 -0.02472092 5.93917999 -0.01146271 7.20678711 0.00219727 C9.11300087 -0.00142067 9.11300087 -0.00142067 11.057724 -0.00511169 C13.74247206 -0.00413269 16.42498759 0.0066721 19.109375 0.03417969 C22.54518465 0.06829844 25.97950175 0.06222885 29.41538334 0.04351711 C32.70010468 0.03039412 35.98459804 0.04866359 39.26928711 0.06469727 C41.11781029 0.05725746 41.11781029 0.05725746 43.00367737 0.04966736 C44.1484404 0.06550369 45.29320343 0.08134003 46.47265625 0.09765625 C47.47905655 0.10385483 48.48545685 0.11005341 49.52235413 0.11643982 C52.17163086 0.63110352 52.17163086 0.63110352 54.49369812 2.01643372 C57.14312003 6.14494452 56.74174395 10.19211634 56.7175293 14.99926758 C56.72792362 16.07026577 56.73831795 17.14126396 56.74902725 18.24471664 C56.77817531 21.71221432 56.78009577 25.17912036 56.78100586 28.64672852 C56.79499854 30.78720324 56.81077463 32.92766708 56.82836914 35.06811523 C56.88108585 43.00566381 56.89925573 50.94341142 56.92163086 58.88110352 C57.04538086 85.48735352 57.04538086 85.48735352 57.17163086 112.63110352 C111.62163086 113.12610352 111.62163086 113.12610352 167.17163086 113.63110352 C167.17163086 95.48110352 167.17163086 77.33110352 167.17163086 58.63110352 C167.29722315 39.69698287 167.29722315 39.69698287 167.43408203 31.57543945 C167.46890508 29.3528797 167.49635155 27.13019718 167.51806641 24.9074707 C167.55116954 21.53893349 167.60308023 18.17118817 167.65991211 14.80297852 C167.66630203 13.80981628 167.67269196 12.81665405 167.67927551 11.793396 C167.70896675 10.43833954 167.70896675 10.43833954 167.73925781 9.0559082 C167.7559124 7.87578156 167.7559124 7.87578156 167.77290344 6.67181396 C168.27255437 4.11457106 169.16656015 3.24465652 171.17163086 1.63110352 C173.7569709 0.3384335 175.65661614 0.48280063 178.55175781 0.45410156 C180.23909782 0.43484871 180.23909782 0.43484871 181.96052551 0.41520691 C183.18132309 0.40781998 184.40212067 0.40043304 185.65991211 0.39282227 C186.91039841 0.38475052 188.1608847 0.37667877 189.44926453 0.36836243 C192.09984044 0.35451156 194.75029155 0.34349816 197.40087891 0.3359375 C200.79053835 0.3248814 204.17953978 0.29049131 207.56896687 0.2507658 C210.80754996 0.21828046 214.04619091 0.21381888 217.28491211 0.20532227 C219.10699944 0.17906013 219.10699944 0.17906013 220.96589661 0.15226746 C222.10024643 0.15519302 223.23459625 0.15811859 224.40332031 0.16113281 C225.89651543 0.15233345 225.89651543 0.15233345 227.4198761 0.14335632 C231.23994924 0.82046243 232.57173246 1.70201858 235.17163086 4.63110352 C235.94267293 8.33884816 235.84108163 12.01592577 235.79981995 15.79101562 C235.80691433 16.94317283 235.81400872 18.09533003 235.82131809 19.28240108 C235.83589098 22.48121887 235.82798835 25.67907777 235.81059515 28.87785292 C235.79724234 32.32714879 235.81265067 35.7763315 235.82441711 39.22561646 C235.84281384 45.98299677 235.83426802 52.74008828 235.81632889 59.49745965 C235.80231358 64.98838865 235.79840777 70.47923915 235.80177116 75.97018433 C235.80224861 76.75113934 235.80272605 77.53209436 235.80321796 78.33671468 C235.80424427 79.92311964 235.80529963 81.50952458 235.80638372 83.0959295 C235.81495489 97.12952192 235.79826233 111.16297475 235.76855469 125.1965332 C235.73971625 138.81963973 235.73263318 152.44254515 235.74804688 166.06567383 C235.764801 180.89385941 235.76885132 195.72194946 235.75133651 210.55013752 C235.74949209 212.1307659 235.74765736 213.7113943 235.74583244 215.29202271 C235.74492035 216.069759 235.74400826 216.8474953 235.74306853 217.64879936 C235.73745822 223.13428063 235.74077492 228.61971534 235.7473774 234.10519409 C235.75510217 240.78855273 235.74838911 247.47171326 235.72320236 254.15503192 C235.71068716 257.56620306 235.70458485 260.97706547 235.71574402 264.38824844 C235.72438821 268.08289079 235.70856644 271.77662526 235.68629456 275.47119141 C235.69453532 276.55405898 235.70277609 277.63692656 235.71126658 278.7526083 C235.63049383 285.97480044 235.63049383 285.97480044 233.30783749 289.29685211 C230.51479345 291.04135701 228.6522647 291.13849714 225.36499023 291.14868164 C223.61297302 291.1675946 223.61297302 291.1675946 221.82556152 291.18688965 C219.93952209 291.17474426 219.93952209 291.17474426 218.01538086 291.16235352 C216.72096069 291.16618042 215.42654053 291.17000732 214.09289551 291.1739502 C211.3557624 291.17984039 208.61915227 291.1712989 205.88208008 291.15258789 C202.3779106 291.12979721 198.87496652 291.14292306 195.37084198 291.16687775 C192.02309065 291.18482806 188.67566699 291.17225112 185.32788086 291.16235352 C184.07052124 291.17045044 182.81316162 291.17854736 181.5177002 291.18688965 C180.34968872 291.17428101 179.18167725 291.16167236 177.97827148 291.14868164 C176.95109009 291.14549927 175.92390869 291.14231689 174.86560059 291.13903809 C171.43407369 290.49204079 170.27576793 289.37662231 168.17163086 286.63110352 C167.25354407 283.77617243 167.04776792 281.18962125 167.05137634 278.20184326 C167.0493101 276.88371958 167.0493101 276.88371958 167.04720211 275.53896713 C167.05080022 274.57904987 167.05439833 273.61913261 167.05810547 272.63012695 C167.05798493 271.5987775 167.0578644 270.56742805 167.05774021 269.50482559 C167.05848654 266.16668796 167.0661021 262.82860616 167.07397461 259.49047852 C167.07544489 257.42944363 167.07646507 255.36840838 167.07702637 253.30737305 C167.08226922 245.66527751 167.09623041 238.02318996 167.10913086 230.38110352 C167.12975586 213.30360352 167.15038086 196.22610352 167.17163086 178.63110352 C130.87163086 178.63110352 94.57163086 178.63110352 57.17163086 178.63110352 C56.96151304 213.99381366 56.96151304 213.99381366 56.78369141 249.35668945 C56.73376465 256.1940918 56.73376465 256.1940918 56.70661926 259.39434814 C56.69046295 261.63080628 56.68017912 263.86731149 56.67451477 266.1038208 C56.66479997 269.49044998 56.63648945 272.87646246 56.60400391 276.26293945 C56.60542987 277.26033016 56.60685583 278.25772087 56.608325 279.28533554 C56.59579598 280.19767078 56.58326696 281.11000603 56.57035828 282.04998779 C56.56574931 282.84272976 56.56114035 283.63547173 56.55639172 284.45223618 C56.06948918 287.20952297 55.07529927 288.6024799 53.17163086 290.63110352 C50.55995178 291.14576721 50.55995178 291.14576721 47.38671875 291.16455078 C46.19861099 291.18038712 45.01050323 291.19622345 43.78639221 291.21253967 C42.50199753 291.2075798 41.21760284 291.20261993 39.89428711 291.19750977 C38.57625595 291.20370834 37.25822479 291.20990692 35.9002533 291.21629333 C33.11008248 291.22670234 30.32042148 291.2221305 27.53027344 291.20751953 C23.95752107 291.19034039 20.38637825 291.21380976 16.81380558 291.24900913 C13.4030377 291.27627625 9.99265903 291.26624703 6.58178711 291.26000977 C5.29941666 291.27326797 4.0170462 291.28652618 2.69581604 291.30018616 C1.50455612 291.28765305 0.3132962 291.27511993 -0.9140625 291.26220703 C-1.96202499 291.26124527 -3.00998749 291.26028351 -4.08970642 291.2592926 C-6.82836914 290.63110352 -6.82836914 290.63110352 -8.96736908 288.79168606 C-11.73952695 284.08366161 -11.38434727 279.80542807 -11.34303284 274.43359375 C-11.34997837 273.28945479 -11.35692389 272.14531584 -11.36407989 270.966506 C-11.38240912 267.12403944 -11.37206857 263.28218614 -11.36181641 259.43969727 C-11.36667733 256.68847124 -11.37747806 253.9372754 -11.38792419 251.18606567 C-11.40957252 244.48401702 -11.4094353 237.7821381 -11.40129865 231.08006597 C-11.39500055 225.63350996 -11.39613392 220.18700348 -11.40257072 214.740448 C-11.40347238 213.96546791 -11.40437403 213.19048783 -11.40530301 212.3920235 C-11.4071542 210.81769982 -11.40901676 209.24337614 -11.41089057 207.66905248 C-11.42747175 192.90423772 -11.41874694 178.13951851 -11.40190499 163.37470949 C-11.38720565 149.86328124 -11.40183909 136.35207532 -11.43067516 122.84067571 C-11.46005866 108.96956677 -11.47104464 95.09856047 -11.46149296 81.22742176 C-11.46047039 79.65886754 -11.45947578 78.09031329 -11.45850945 76.52175903 C-11.45803306 75.74998666 -11.45755667 74.97821428 -11.45706584 74.18305486 C-11.45490043 68.74259234 -11.4647124 63.30222688 -11.47928047 57.86178589 C-11.49678487 51.23225995 -11.49671386 44.60301757 -11.47392882 37.97350287 C-11.46276902 34.5903643 -11.46235534 31.20813778 -11.47822952 27.82495499 C-11.49407292 24.15902589 -11.4792889 20.49447625 -11.45655823 16.82861328 C-11.46839396 15.75712256 -11.48022968 14.68563185 -11.49242407 13.58167171 C-11.40155886 6.39687202 -11.40155886 6.39687202 -8.4626236 2.47052097 C-5.36542749 0.30784585 -3.75133083 0.00358211 0 0 Z " fill="#E54D23" transform="translate(339.828369140625,1839.368896484375)"/>
<path d="M0 0 C1.28515625 1.66796875 1.28515625 1.66796875 2.28515625 4.98046875 C0.74839645 10.6472705 -2.90393481 14.31784898 -6.71484375 18.66796875 C-7.25496094 19.42722656 -7.79507812 20.18648437 -8.3515625 20.96875 C-9.02638672 21.80986328 -9.02638672 21.80986328 -9.71484375 22.66796875 C-10.37484375 22.66796875 -11.03484375 22.66796875 -11.71484375 22.66796875 C-12.12234863 23.54630371 -12.12234863 23.54630371 -12.53808594 24.44238281 C-13.69872757 26.63748845 -14.96153428 28.36914114 -16.54296875 30.27734375 C-17.09597656 30.95023438 -17.64898438 31.623125 -18.21875 32.31640625 C-18.79496094 33.00992187 -19.37117188 33.7034375 -19.96484375 34.41796875 C-21.09659929 35.78648235 -22.22681197 37.15627338 -23.35546875 38.52734375 C-23.91427734 39.20474609 -24.47308594 39.88214844 -25.04882812 40.58007812 C-27.22848489 43.31167611 -29.25075293 46.14635891 -31.24902344 49.01269531 C-32.93660577 50.91839288 -34.3469602 51.75842187 -36.71484375 52.66796875 C-41.9613403 52.50266817 -45.1063815 50.24069738 -49.08984375 47.10546875 C-70.50429132 31.0806989 -95.3297712 25.09721163 -121.83984375 28.0625 C-136.76232708 30.51269589 -152.6091846 38.31028848 -161.71484375 50.66796875 C-162.53984375 51.47234375 -163.36484375 52.27671875 -164.21484375 53.10546875 C-172.80932067 61.91480759 -178.9992252 75.74528732 -181.71484375 87.66796875 C-181.87823242 88.25690918 -182.04162109 88.84584961 -182.20996094 89.45263672 C-187.58120424 110.28669625 -184.52783025 134.56931857 -174.96484375 153.66796875 C-162.68544926 173.81385034 -147.08452717 186.31720698 -124.1171875 191.9765625 C-101.03784177 196.66662472 -78.0714031 193.25691865 -56.71484375 183.66796875 C-55.72484375 183.00796875 -54.73484375 182.34796875 -53.71484375 181.66796875 C-53.31739758 178.75235223 -53.10861224 176.03345646 -53.02734375 173.10546875 C-52.99318359 172.35072266 -52.95902344 171.59597656 -52.92382812 170.81835938 C-52.5903548 162.44069269 -52.68736788 154.05055178 -52.71484375 145.66796875 C-53.42228226 145.66432312 -54.12972076 145.66067749 -54.8585968 145.65692139 C-61.52434664 145.61906054 -68.18963286 145.56223049 -74.85503864 145.48406601 C-78.28187798 145.44454967 -81.70845879 145.41238219 -85.13549805 145.39697266 C-89.07504308 145.37893726 -93.01387144 145.32900444 -96.953125 145.27734375 C-98.80010735 145.27550079 -98.80010735 145.27550079 -100.68440247 145.27362061 C-101.82535873 145.25390198 -102.966315 145.23418335 -104.1418457 145.21386719 C-105.14778275 145.20498474 -106.15371979 145.19610229 -107.19013977 145.18695068 C-109.71484375 144.66796875 -109.71484375 144.66796875 -111.53889465 142.94038391 C-112.88987737 140.32973213 -113.09482737 138.69242568 -113.10302734 135.76342773 C-113.11248383 134.79239609 -113.12194031 133.82136444 -113.13168335 132.82090759 C-113.12257431 131.25826927 -113.12257431 131.25826927 -113.11328125 129.6640625 C-113.11758652 128.05181541 -113.11758652 128.05181541 -113.12197876 126.40699768 C-113.12401895 124.13664218 -113.11849225 121.86626908 -113.10595703 119.59594727 C-113.08988775 116.11499903 -113.105816 112.63520921 -113.125 109.15429688 C-113.12301787 106.94921618 -113.11917482 104.74413621 -113.11328125 102.5390625 C-113.11935394 101.49527939 -113.12542664 100.45149628 -113.13168335 99.37608337 C-113.11749863 97.92426414 -113.11749863 97.92426414 -113.10302734 96.44311523 C-113.10064056 95.59136215 -113.09825378 94.73960907 -113.09579468 93.86204529 C-112.62681523 91.16097086 -111.87571409 90.3102199 -109.71484375 88.66796875 C-106.85769919 87.71558723 -105.06315957 87.53617605 -102.09780884 87.52079773 C-100.67626244 87.51006477 -100.67626244 87.51006477 -99.22599792 87.49911499 C-98.18800552 87.49642609 -97.15001312 87.49373718 -96.08056641 87.4909668 C-94.98600632 87.4843956 -93.89144623 87.4778244 -92.76371765 87.47105408 C-89.13544652 87.45131529 -85.50721675 87.43965852 -81.87890625 87.4296875 C-80.64121868 87.42561197 -79.40353111 87.42153645 -78.12833786 87.41733742 C-72.25557863 87.39862764 -66.38283569 87.38406071 -60.51005232 87.37572545 C-53.73456447 87.36594955 -46.95940301 87.33961742 -40.18403018 87.29922456 C-34.31234019 87.26542194 -28.44075973 87.25358028 -22.56898117 87.24952126 C-20.07227741 87.24464188 -17.57557747 87.23298977 -15.07893753 87.21448326 C-11.58832848 87.19021261 -8.09857723 87.19103493 -4.60791016 87.19799805 C-3.57396622 87.18518799 -2.54002228 87.17237793 -1.4747467 87.15917969 C2.60871897 87.1889224 5.63870713 87.39479985 9.42355347 88.99415588 C12.45204025 93.34395972 11.99713808 97.74272948 11.96386719 102.91894531 C11.97584137 104.06735397 11.98781555 105.21576263 12.00015259 106.39897156 C12.03240257 110.20251947 12.02751109 114.00493182 12.01953125 117.80859375 C12.02797743 120.45172521 12.03761695 123.09485311 12.04840088 125.73797607 C12.06664741 131.28294431 12.06243491 136.82759084 12.046875 142.37255859 C12.02937943 148.76906024 12.0556868 155.16431274 12.10384154 161.56062913 C12.14851995 167.72557901 12.15394959 173.8899524 12.14398956 180.05504608 C12.14434927 182.67208023 12.15563021 185.28913676 12.17809296 187.90607452 C12.20537091 191.57147281 12.18790057 195.23408361 12.15917969 198.89941406 C12.18514725 200.51595131 12.18514725 200.51595131 12.2116394 202.16514587 C12.10066532 208.79457071 10.86232144 212.3046674 6.16753006 217.04789352 C3.0337109 219.74503198 -0.25275411 222.0154762 -3.77734375 224.16796875 C-4.52266357 224.63372314 -5.2679834 225.09947754 -6.03588867 225.5793457 C-8.25388076 226.95633237 -10.48362058 228.31256714 -12.71484375 229.66796875 C-13.88680015 230.40091153 -15.05868174 231.13397395 -16.23046875 231.8671875 C-29.84104015 240.07545864 -45.19863841 245.92304684 -60.5234375 250.06933594 C-62.03120548 250.4812173 -63.53370376 250.91272918 -65.03125 251.36035156 C-93.27112556 259.6286828 -127.91977792 259.2106432 -155.71484375 249.66796875 C-156.84696289 249.30759521 -156.84696289 249.30759521 -158.00195312 248.93994141 C-173.15749256 244.11244429 -187.21814585 236.47088898 -199.71484375 226.66796875 C-200.47925781 226.1059375 -201.24367188 225.54390625 -202.03125 224.96484375 C-218.45057599 212.74315414 -230.06863411 196.48309984 -239.71484375 178.66796875 C-240.22446655 177.73210938 -240.22446655 177.73210938 -240.74438477 176.77734375 C-257.78174703 144.22240342 -259.71855776 102.56902887 -249.20117188 67.734375 C-242.57585508 47.13685545 -232.56984683 28.86611613 -217.84765625 12.99609375 C-215.98457285 10.96239832 -214.2607609 8.87328593 -212.52734375 6.73046875 C-190.49752696 -18.32403685 -152.47925457 -32.51075023 -119.91967773 -34.82714844 C-80.01162815 -37.246645 -30.15825397 -28.96518019 0 0 Z " fill="#0B7141" transform="translate(1724.71484375,1874.33203125)"/>
<path d="M0 0 C1.81219276 -0.01418472 1.81219276 -0.01418472 3.66099548 -0.02865601 C4.96726395 -0.02258331 6.27353241 -0.01651062 7.61938477 -0.01025391 C8.97315121 -0.01227513 10.3269166 -0.01518698 11.68067932 -0.01895142 C14.51785652 -0.02337405 17.35475029 -0.01694706 20.19189453 -0.00292969 C23.82481471 0.01414632 27.45706922 0.00433145 31.08996487 -0.01364708 C33.88585909 -0.02450078 36.68159618 -0.02103112 39.47749519 -0.0132637 C41.46721453 -0.01029445 43.45694003 -0.01939176 45.44664001 -0.02865601 C47.26356102 -0.01447128 47.26356102 -0.01447128 49.1171875 0 C50.18291489 0.00238678 51.24864227 0.00477356 52.34666443 0.00723267 C55.57641576 0.45035194 56.78227634 1.15425129 59.12329102 3.38818359 C59.61548233 5.5533247 59.61548233 5.5533247 59.60430908 8.11479187 C59.60980774 9.08654358 59.6153064 10.05829529 59.62097168 11.05949402 C59.60659058 12.12404312 59.59220947 13.18859222 59.57739258 14.28540039 C59.57797668 15.40749908 59.57856079 16.52959778 59.5791626 17.68569946 C59.57637071 21.40324591 59.54522507 25.11999556 59.51391602 28.83740234 C59.5064576 31.41143862 59.50076278 33.98548056 59.49676514 36.55952454 C59.48304099 42.64758088 59.45149992 48.73530725 59.41136718 54.82323915 C59.36666811 61.75421244 59.34466719 68.68519939 59.32458544 75.61628091 C59.28276745 89.87373603 59.21240381 104.13094962 59.12329102 118.38818359 C60.22843939 117.44798326 61.33256854 116.50658483 62.4362793 115.56469727 C63.05125275 115.04058762 63.6662262 114.51647797 64.29983521 113.97648621 C66.9689193 111.65160769 69.4977838 109.20455453 71.99829102 106.70068359 C72.5180249 106.18159424 73.03775879 105.66250488 73.57324219 105.12768555 C76.73705415 101.92099426 79.64112801 98.61523787 82.43579102 95.07568359 C86.19559919 90.32969622 90.30773794 86.11881618 94.62329102 81.88818359 C99.73282847 76.87909165 104.38065223 71.77205788 108.81079102 66.14208984 C112.12903577 62.19046391 115.79078417 58.62757395 119.46533203 55.01049805 C124.03806643 50.50359706 128.25878394 45.80714723 132.38208008 40.88574219 C138.32366476 33.81075585 144.36339118 26.98973984 150.96044922 20.51733398 C155.53097652 16.02719093 159.69423015 11.28502184 163.80688477 6.38037109 C164.61319336 5.42517578 164.61319336 5.42517578 165.43579102 4.45068359 C165.90629883 3.88478516 166.37680664 3.31888672 166.86157227 2.73583984 C168.93304152 0.5232798 170.08789774 0.38974567 173.15293884 0.25447083 C175.10460716 0.24875313 175.10460716 0.24875313 177.09570312 0.24291992 C177.81294052 0.23956131 178.53017792 0.2362027 179.26914978 0.23274231 C181.64632893 0.22322293 184.02343773 0.22128873 186.40063477 0.22021484 C188.049688 0.21700304 189.69874095 0.21363903 191.34779358 0.21012878 C194.80706442 0.20413511 198.26631027 0.20228914 201.72558594 0.20288086 C206.16222841 0.20298252 210.59871096 0.1893277 215.03531551 0.17210865 C218.44190713 0.1610004 221.84845994 0.15896129 225.25506783 0.15949059 C226.89096185 0.15830879 228.52685683 0.1538759 230.16273308 0.14615822 C232.44909808 0.13638155 234.73511398 0.13922698 237.02148438 0.14526367 C238.32339218 0.14383865 239.62529999 0.14241364 240.96665955 0.14094543 C244.12329102 0.38818359 244.12329102 0.38818359 247.12329102 2.38818359 C248.02954102 4.27880859 248.02954102 4.27880859 248.12329102 6.38818359 C246.71704102 8.24755859 246.71704102 8.24755859 244.62329102 10.13818359 C241.84307603 12.68314962 239.29743096 15.29941778 236.84204102 18.15380859 C232.51084089 23.16190413 227.80821834 27.75469165 223.08422852 32.38818359 C219.12662329 36.29994783 215.38479449 40.31564496 211.75317383 44.53125 C209.44105051 47.16546359 206.99312177 49.61320655 204.49829102 52.07568359 C203.59852539 52.96642578 202.69875977 53.85716797 201.77172852 54.77490234 C200.89774414 55.63728516 200.02375977 56.49966797 199.12329102 57.38818359 C194.89276832 61.56304151 190.81149873 65.86414765 186.74829102 70.20068359 C185.79696289 71.21098633 185.79696289 71.21098633 184.82641602 72.24169922 C180.95254135 76.37251455 177.20956375 80.57657171 173.58178711 84.92602539 C173.1004834 85.4085376 172.61917969 85.8910498 172.12329102 86.38818359 C171.46329102 86.38818359 170.80329102 86.38818359 170.12329102 86.38818359 C170.12329102 87.04818359 170.12329102 87.70818359 170.12329102 88.38818359 C168.49885107 90.11742612 166.83538749 91.74792333 165.12329102 93.38818359 C163.70388154 94.80210213 162.28747883 96.21904241 160.87329102 97.63818359 C157.70662435 100.80485026 154.53995768 103.97151693 151.37329102 107.13818359 C150.63353027 107.87810547 149.89376953 108.61802734 149.1315918 109.38037109 C147.93792428 110.57374839 146.74377294 111.76664255 145.54858398 112.95849609 C139.74960097 117.97383375 139.74960097 117.97383375 137.11938477 124.57958984 C138.62192718 128.78320072 141.28769389 131.86643119 144.06079102 135.32568359 C145.25534709 136.848976 146.44803395 138.37373595 147.63891602 139.89990234 C148.23124023 140.65706543 148.82356445 141.41422852 149.43383789 142.19433594 C151.81237771 145.28300051 154.0707182 148.44836701 156.31079102 151.63818359 C159.80841417 156.59886938 163.43746467 161.42972841 167.16748047 166.2199707 C171.2986982 171.55569485 175.2253888 177.0329222 179.15893555 182.51513672 C183.30015464 188.27662146 187.53382084 193.96118563 191.80981445 199.62304688 C195.45404595 204.46149473 198.98310174 209.37209083 202.47998047 214.31762695 C205.61628924 218.73152862 208.90219068 223.01404491 212.2331543 227.28344727 C215.66966807 231.72288923 218.90812172 236.28668036 222.12329102 240.88818359 C226.46427196 247.09855248 230.95220867 253.14555206 235.60766602 259.12255859 C238.45007862 262.78741808 241.19672861 266.52073893 243.93579102 270.26318359 C244.37995361 270.86984863 244.82411621 271.47651367 245.28173828 272.1015625 C246.13731398 273.27353552 246.98953637 274.44796504 247.83813477 275.625 C248.73654858 276.85758826 249.65212904 278.07776427 250.58032227 279.28808594 C251.82625653 280.94111192 252.98229924 282.66105162 254.12329102 284.38818359 C253.54579001 287.04468821 253.03825327 288.47322134 251.12329102 290.38818359 C248.81924776 290.50904413 246.51144639 290.55849287 244.2043457 290.58105469 C243.48071335 290.58923218 242.75708099 290.59740967 242.01152039 290.60583496 C239.60607745 290.63073678 237.20069381 290.64721892 234.79516602 290.66162109 C233.97488167 290.66694477 233.15459732 290.67226845 232.30945587 290.67775345 C227.96599765 290.70450855 223.62256838 290.72387398 219.27905273 290.73828125 C214.79186127 290.75491588 210.30540619 290.79967619 205.81849289 290.85065269 C202.36978311 290.8843155 198.92124806 290.89585771 195.47238922 290.90150833 C193.81855913 290.90822586 192.16474074 290.92346112 190.51107025 290.94739914 C188.19337673 290.97902901 185.87766725 290.97909165 183.55981445 290.97167969 C182.24156677 290.97976654 180.92331909 290.98785339 179.56512451 290.9961853 C174.64738261 290.12746359 172.75272953 287.48502239 169.79980469 283.68505859 C169.46698486 283.17458984 169.13416504 282.66412109 168.79125977 282.13818359 C168.39334229 281.54038086 167.9954248 280.94257813 167.58544922 280.32666016 C167.16481201 279.68696289 166.7441748 279.04726562 166.31079102 278.38818359 C161.76183843 271.60910162 156.92039762 265.102469 151.93579102 258.63818359 C147.10875287 252.36749832 142.45995276 246.1036826 138.16235352 239.45849609 C132.5248478 230.96983806 126.38401239 222.8009861 120.33422852 214.60302734 C119.45136469 213.40645063 118.56855162 212.20983646 117.68579102 211.01318359 C117.03199463 210.12759766 117.03199463 210.12759766 116.36499023 209.22412109 C111.83702776 203.05810641 107.49436519 196.76458083 103.13476562 190.47900391 C99.41777419 185.14960471 95.59270519 180.01958687 91.38110352 175.06787109 C90.12329102 173.38818359 90.12329102 173.38818359 90.12329102 171.38818359 C81.11099913 176.24587284 74.7365904 185.70594766 68.42407227 193.58740234 C66.12329102 196.38818359 66.12329102 196.38818359 64.38768005 197.76748657 C60.77933357 200.94875603 59.27846004 203.39537112 58.5271759 208.20228577 C58.27026195 213.04076533 58.4158146 217.87189264 58.54516602 222.71240234 C58.56586893 224.5049932 58.58300347 226.29762849 58.59674072 228.09028625 C58.64030555 232.79250966 58.72333989 237.49312814 58.81750488 242.19458008 C58.96338661 249.72871694 59.05636741 257.26346867 59.13535309 264.798563 C59.16968077 267.42527234 59.22536426 270.0508961 59.28363037 272.6771698 C59.30731342 274.28875833 59.33039658 275.90035583 59.3527832 277.51196289 C59.37456635 278.23882797 59.39634949 278.96569305 59.41879272 279.71458435 C59.45750025 284.08690825 59.12341229 287.09908018 56.12329102 290.38818359 C53.38426208 291.00964355 53.38426208 291.00964355 50.03125 291.00341797 C48.7766246 291.01272339 47.52199921 291.02202881 46.22935486 291.03161621 C44.85935337 291.01603152 43.48936295 290.99944668 42.11938477 290.98193359 C40.7159892 290.98022277 39.31259044 290.98028789 37.90919495 290.98205566 C34.96926263 290.98040215 32.03009265 290.96169846 29.09033203 290.93017578 C25.31816459 290.89046018 21.54699412 290.88613413 17.77465725 290.89363861 C14.87757702 290.89670469 11.98072185 290.88460158 9.08369637 290.86750793 C7.69261143 290.86046743 6.30150098 290.85735467 4.91039848 290.85820007 C2.96884051 290.85640688 1.02733939 290.83278944 -0.9140625 290.80810547 C-2.01976089 290.79968628 -3.12545929 290.79126709 -4.2646637 290.78259277 C-5.12663864 290.65243774 -5.98861359 290.52228271 -6.87670898 290.38818359 C-9.02953993 287.15893717 -9.1274358 286.31137331 -9.13118458 282.59208679 C-9.13701677 281.5986794 -9.14284896 280.60527201 -9.14885789 279.58176136 C-9.14507857 278.48751693 -9.14129924 277.3932725 -9.1374054 276.26586914 C-9.14123094 275.10569369 -9.14505649 273.94551825 -9.14899796 272.75018597 C-9.15755031 269.52466201 -9.15708707 266.29928276 -9.15281737 263.07375479 C-9.15035667 259.59722273 -9.15935606 256.12071778 -9.16685486 252.64419556 C-9.17962179 245.83162352 -9.18139311 239.01909086 -9.1790546 232.20650887 C-9.17727366 226.67122727 -9.17901624 221.13595766 -9.18327904 215.60067749 C-9.18387423 214.81374754 -9.18446942 214.02681758 -9.18508264 213.21604127 C-9.18629435 211.61755506 -9.18750849 210.01906886 -9.18872502 208.42058265 C-9.19960804 193.42123267 -9.19743434 178.42190515 -9.19134017 163.4225539 C-9.18616914 149.68984082 -9.19742999 135.95719863 -9.21643839 122.22449958 C-9.23579268 108.13425877 -9.24407711 94.04405154 -9.24031514 79.95379734 C-9.23839958 72.03894786 -9.24092516 64.12415874 -9.25502968 56.20932007 C-9.26691375 49.4721571 -9.2683819 42.73509166 -9.25623951 35.99792743 C-9.25033005 32.55856894 -9.24930797 29.1193891 -9.26124191 25.68004227 C-9.27161366 21.95669255 -9.26368578 18.23382958 -9.25093079 14.51049805 C-9.25830507 13.41625361 -9.26567936 12.32200918 -9.2732771 11.19460583 C-9.26607056 10.20119843 -9.25886402 9.20779104 -9.25143909 8.1842804 C-9.25149411 7.32432118 -9.25154913 6.46436197 -9.25160581 5.57834339 C-8.33820715 0.24223787 -4.77241401 0.01069618 0 0 Z " fill="#E54D23" transform="translate(1102.876708984375,1839.61181640625)"/>
<path d="M0 0 C1.08470078 -0.01268417 2.16940155 -0.02536835 3.28697205 -0.03843689 C4.45369949 -0.03550125 5.62042694 -0.03256561 6.82250977 -0.02954102 C8.62740623 -0.03740379 8.62740623 -0.03740379 10.46876526 -0.04542542 C13.01318592 -0.05184835 15.55763626 -0.05050516 18.10205078 -0.04199219 C21.99573656 -0.03348698 25.88795349 -0.06223526 29.78149414 -0.09399414 C32.25349891 -0.09560633 34.72550628 -0.09502829 37.19750977 -0.09204102 C38.94456459 -0.10889198 38.94456459 -0.10889198 40.72691345 -0.12608337 C48.74749375 -0.056919 48.74749375 -0.056919 52.70922852 2.14624023 C54.58868941 4.41889378 55.74810704 6.2888809 56.83032227 9.02514648 C57.20310303 9.94465088 57.57588379 10.86415527 57.95996094 11.81152344 C58.34901611 12.81143311 58.73807129 13.81134277 59.13891602 14.84155273 C60.02148941 17.03175327 60.9043124 19.22185323 61.78735352 21.41186523 C62.24464844 22.56074219 62.70194336 23.70961914 63.1730957 24.89331055 C65.48910897 30.68737296 67.87706966 36.45138853 70.26391602 42.21655273 C71.00883301 44.0213208 71.00883301 44.0213208 71.76879883 45.86254883 C76.03186375 56.17330009 80.42664266 66.42583234 84.83914185 76.67333984 C89.7092542 87.98746226 94.4840149 99.33797191 99.20141602 110.71655273 C105.37144379 125.59469922 111.72235931 140.38654167 118.15991211 155.15063477 C124.19586239 169.01397042 130.06878499 182.94248592 135.87329102 196.90405273 C138.50453891 203.23295735 141.13890588 209.56053296 143.78399658 215.88366699 C144.31175922 217.14602092 144.83890087 218.40863465 145.36541748 219.67150879 C148.57224686 227.36075835 151.8346328 235.0227796 155.1774292 242.65402222 C156.85931903 246.49374954 158.53230742 250.33733664 160.20581055 254.1807251 C161.03295299 256.07215279 161.8649512 257.96146477 162.7019043 259.84857178 C163.87765955 262.50006899 165.037064 265.15819216 166.19360352 267.81811523 C166.55122772 268.61260071 166.90885193 269.40708618 167.27731323 270.22564697 C168.68603902 273.50085772 169.61504413 275.71647236 169.4128418 279.31567383 C168.57641602 281.40405273 168.57641602 281.40405273 166.57641602 283.40405273 C164.00906372 283.6782074 164.00906372 283.6782074 160.72143555 283.71044922 C159.49321075 283.72643661 158.26498596 283.74242401 156.99954224 283.75889587 C155.6527752 283.76527245 154.30600319 283.77066523 152.95922852 283.77514648 C151.58161316 283.78411086 150.20399881 283.79323267 148.8263855 283.80250549 C145.93623487 283.81900795 143.04620025 283.82669773 140.15600586 283.82958984 C136.45443903 283.83497239 132.75396426 283.87263912 129.05270576 283.91833401 C126.20620762 283.94809608 123.35997258 283.9553132 120.51333237 283.95631599 C119.14895505 283.96052083 117.78457714 283.97296609 116.42035294 283.99383354 C114.51048369 284.020719 112.60022087 284.01282129 110.69018555 284.00341797 C109.06042282 284.01102394 109.06042282 284.01102394 107.3977356 284.01878357 C103.61871315 283.19538106 102.63905704 281.58630253 100.57641602 278.40405273 C99.28710938 275.87817383 99.28710938 275.87817383 98.16625977 273.17749023 C97.52503174 271.64801758 97.52503174 271.64801758 96.87084961 270.08764648 C96.42306152 268.99581055 95.97527344 267.90397461 95.51391602 266.77905273 C95.0429248 265.64854492 94.57193359 264.51803711 94.08666992 263.35327148 C92.57230797 259.70797519 91.07140863 256.05732019 89.57641602 252.40405273 C89.1895462 251.45931091 89.1895462 251.45931091 88.79486084 250.4954834 C85.68709 242.9032188 82.59603054 235.30429297 79.52514648 227.69702148 C78.92431777 226.24488992 78.279222 224.8096647 77.57641602 223.40405273 C40.61641602 223.07405273 3.65641602 222.74405273 -34.42358398 222.40405273 C-35.41358398 225.70405273 -36.40358398 229.00405273 -37.42358398 232.40405273 C-38.21803899 234.41918494 -39.0531193 236.41930194 -39.94702148 238.39233398 C-40.6388855 239.93691284 -40.6388855 239.93691284 -41.34472656 241.51269531 C-41.82449951 242.56996826 -42.30427246 243.62724121 -42.79858398 244.71655273 C-47.24045605 254.6246082 -47.24045605 254.6246082 -51.23608398 264.71655273 C-57.44389648 281.41420898 -57.44389648 281.41420898 -61.42358398 283.40405273 C-63.31181145 283.51049234 -65.20378565 283.55288026 -67.0949707 283.56518555 C-68.28315399 283.57479309 -69.47133728 283.58440063 -70.69552612 283.59429932 C-71.98508209 283.59854919 -73.27463806 283.60279907 -74.60327148 283.60717773 C-75.92271759 283.61287781 -77.2421637 283.61857788 -78.60159302 283.62445068 C-81.39756659 283.63495978 -84.19351141 283.64080297 -86.98950195 283.64428711 C-90.56970031 283.64977042 -94.14951807 283.67379479 -97.72959709 283.70225906 C-100.48341984 283.72089688 -103.23715115 283.72609164 -105.99103165 283.72762299 C-107.95198211 283.73211748 -109.91288361 283.75075893 -111.87374878 283.76959229 C-113.66548019 283.76509064 -113.66548019 283.76509064 -115.4934082 283.76049805 C-116.5443869 283.76414368 -117.5953656 283.76778931 -118.67819214 283.77154541 C-121.77132279 283.35750511 -123.13896287 282.47604846 -125.42358398 280.40405273 C-124.88765422 275.43680322 -123.80914229 271.44654643 -121.76342773 266.89624023 C-121.49789597 266.29700241 -121.2323642 265.69776459 -120.95878601 265.08036804 C-120.392507 263.80339657 -119.82260108 262.52802813 -119.24932861 261.25418091 C-117.74210555 257.90267319 -116.26328499 254.53875306 -114.78686523 251.17358398 C-114.49358337 250.50582443 -114.20030151 249.83806488 -113.89813232 249.15007019 C-111.42797165 243.4900899 -109.18719675 237.7599915 -107.04858398 231.96655273 C-104.46256031 224.99593518 -101.62417728 218.30488773 -98.40405273 211.59936523 C-90.82618984 195.72912122 -83.97387759 179.45221152 -77.51196289 163.09667969 C-75.02881765 156.82713886 -72.38398266 150.6408568 -69.67358398 144.46655273 C-66.114188 136.32513541 -62.60639365 128.16566291 -59.19995117 119.95898438 C-57.55921033 116.02507858 -55.85206842 112.13257112 -54.07202148 108.25952148 C-51.30383715 102.20526489 -48.73311767 96.07243368 -46.17663574 89.92672729 C-41.57595263 78.86900851 -36.91249244 67.84081271 -32.17358398 56.84155273 C-28.58952274 48.51993258 -25.07730617 40.1760376 -21.67358398 31.77905273 C-18.8734876 24.90168917 -16.05271451 18.03478274 -13.11108398 11.21655273 C-12.6407373 10.09289307 -12.6407373 10.09289307 -12.16088867 8.9465332 C-9.39101163 2.62025254 -7.00558579 0.03971341 0 0 Z M20.57641602 85.40405273 C16.55981642 93.01781749 13.32569512 100.82691194 10.20141602 108.84155273 C4.85124635 122.45343646 -0.85822176 135.89602458 -6.69848633 149.30419922 C-7.17114426 150.39446663 -7.17114426 150.39446663 -7.65335083 151.50675964 C-8.24670993 152.87503217 -8.84313726 154.24197953 -9.44308472 155.6073761 C-10.93729474 158.88487494 -10.93729474 158.88487494 -11.42358398 162.40405273 C-3.24404549 162.55776479 4.93556629 162.7059463 13.11533165 162.84701633 C16.91328807 162.91269166 20.71119016 162.98029061 24.5090332 163.05224609 C28.17235142 163.12158269 31.8357261 163.18591812 35.4991951 163.24674797 C36.89870024 163.27087255 38.29817522 163.29681646 39.69761276 163.32458687 C41.65370765 163.36309646 43.60993654 163.39460917 45.56616211 163.42578125 C46.68090912 163.44576675 47.79565613 163.46575226 48.94418335 163.48634338 C51.55633024 163.5886984 51.55633024 163.5886984 53.57641602 162.40405273 C51.22366598 154.78282315 48.15141645 147.52999653 44.99404907 140.21817017 C39.42420393 127.31003691 34.08898511 114.33472147 29.04125977 101.21337891 C26.3276521 92.13767636 26.3276521 92.13767636 20.57641602 85.40405273 Z " fill="#0B7141" transform="translate(1892.423583984375,1841.595947265625)"/>
<path d="M0 0 C-0.4238321 5.31340729 -3.37753063 8.73368807 -6.4375 12.875 C-7.53811766 14.39723914 -8.6370475 15.9206999 -9.734375 17.4453125 C-10.28544922 18.20875977 -10.83652344 18.97220703 -11.40429688 19.75878906 C-13.74062072 23.0402231 -15.97014672 26.38750772 -18.1875 29.75 C-18.99591463 30.96626491 -19.8045065 32.18241203 -20.61328125 33.3984375 C-21.82767418 35.22725245 -23.03811557 37.05827674 -24.23974609 38.89550781 C-25.441174 40.72909199 -26.65663389 42.55264237 -27.875 44.375 C-28.57367187 45.43460938 -29.27234375 46.49421875 -29.9921875 47.5859375 C-32 50 -32 50 -33.8359375 51.12890625 C-37.43820447 50.91433078 -39.92982527 48.62769618 -42.75 46.5625 C-54.56385449 38.32112025 -67.19367247 32.19432735 -81 28 C-82.04800781 27.6803125 -83.09601562 27.360625 -84.17578125 27.03125 C-91.70991527 25.08230036 -98.99341543 24.69744515 -106.75 24.625 C-107.7083374 24.61106201 -108.6666748 24.59712402 -109.65405273 24.58276367 C-117.28325921 24.6334364 -124.31383536 25.80398702 -130.9375 29.75 C-136.24028818 35.53485983 -136.9438307 42.405911 -137 50 C-136.49284861 55.07151386 -134.9581727 57.40090188 -131.1875 60.625 C-120.77043339 67.86463128 -108.09558306 70.43251266 -95.98150635 73.50588989 C-60.64017904 82.53134835 -20.71789954 94.06113788 -0.56640625 127.0703125 C9.76628888 146.39580214 11.39897523 169.61783252 5.2668457 190.6081543 C1.72616145 201.56580551 -3.44833396 211.26117248 -11 220 C-11.56976562 220.72445312 -12.13953125 221.44890625 -12.7265625 222.1953125 C-29.40982207 242.57018695 -55.87296832 251.10336358 -81.14648438 253.75244141 C-120.31421669 257.15046336 -158.97355484 246.91246502 -192 226 C-193.10214844 225.30777344 -194.20429688 224.61554687 -195.33984375 223.90234375 C-202.30759413 219.39168938 -208.68027541 214.37425398 -215 209 C-214.48043622 204.59158007 -212.9899286 202.34411595 -210.125 199 C-208.89910156 197.55173828 -208.89910156 197.55173828 -207.6484375 196.07421875 C-206.76582734 195.04930488 -205.88301282 194.02456697 -205 193 C-203.24840014 190.93882736 -201.49836464 188.87640918 -199.75 186.8125 C-199.07541748 186.01888062 -199.07541748 186.01888062 -198.38720703 185.20922852 C-194.53426055 180.66495106 -190.7570799 176.06123405 -187 171.4375 C-186.44795898 170.75856689 -185.89591797 170.07963379 -185.32714844 169.38012695 C-182.82676176 166.29412339 -180.34838018 163.20456045 -178 160 C-173.68925207 161.42394742 -170.99117405 163.54991566 -167.625 166.5625 C-145.05145009 185.97031181 -116.10860389 194.2448537 -86.625 192.75 C-78.36955588 191.98925942 -70.6726818 190.75941037 -64.47265625 184.8671875 C-60.86256857 180.28994105 -59.25310953 175.09719328 -58.5625 169.375 C-59.30005507 163.68528944 -60.60763537 158.96551338 -64.75 154.8125 C-68.1655233 152.24912645 -71.56716357 150.98166234 -75.6171875 149.66796875 C-76.26869781 149.45599854 -76.92020813 149.24402832 -77.59146118 149.02563477 C-85.80957973 146.37649637 -94.0927763 143.93926168 -102.375 141.5 C-103.94538116 141.03538826 -105.51569386 140.57054506 -107.0859375 140.10546875 C-113.25800622 138.27899933 -119.430404 136.45406187 -125.61181641 134.65942383 C-147.8684018 128.18755981 -167.8965902 121.10153642 -185 105 C-185.68707031 104.36707031 -186.37414063 103.73414063 -187.08203125 103.08203125 C-195.42744365 94.54823482 -200.75165856 81.55758987 -203 70 C-203.18175781 69.06800781 -203.36351563 68.13601563 -203.55078125 67.17578125 C-206.70960177 44.84429359 -201.58354678 19.78793442 -189 1 C-171.73888696 -20.87061482 -147.14796665 -31.60920524 -119.97729492 -34.984375 C-76.17079367 -39.80304585 -35.08056058 -26.5321941 0 0 Z " fill="#0B7141" transform="translate(2292,1876)"/>
<path d="M0 0 C0.93910691 -0.00538554 1.87821383 -0.01077108 2.84577852 -0.01631981 C6.00030977 -0.03065541 9.1544247 -0.02348179 12.30897522 -0.01637268 C14.56743712 -0.02207331 16.82589614 -0.02903637 19.08435059 -0.03717041 C25.22479084 -0.05515077 31.36508858 -0.05392426 37.50554729 -0.04822803 C42.62754875 -0.04514324 47.74952256 -0.05122069 52.8715201 -0.05726677 C65.64377521 -0.07213079 78.41592925 -0.068485 91.18817819 -0.05640347 C102.28116963 -0.04647082 113.37399429 -0.05941129 124.46696001 -0.08333766 C135.85652779 -0.10771873 147.24599585 -0.11693905 158.63559729 -0.11068493 C165.0302794 -0.10730886 171.4248237 -0.10977363 177.81948662 -0.12693596 C183.83184882 -0.1423672 189.84389181 -0.13849183 195.85624123 -0.11963081 C198.06495984 -0.11593437 200.27370191 -0.11908394 202.48239899 -0.1295166 C205.49360162 -0.14265572 208.50373647 -0.13124147 211.51489258 -0.11352539 C212.392518 -0.1231304 213.27014342 -0.1327354 214.17436355 -0.14263147 C218.24136795 -0.09327291 220.32415087 0.0819715 223.86372471 2.26012325 C226.32435845 4.9349149 226.44390588 6.22807124 226.43617249 9.82713318 C226.45013062 11.45902588 226.45013062 11.45902588 226.46437073 13.12388611 C226.43977783 14.87868286 226.43977783 14.87868286 226.41468811 16.66893005 C226.41472839 17.87456604 226.41476868 19.08020203 226.41481018 20.32237244 C226.4094494 22.87105014 226.39184329 25.41972712 226.3629303 27.96824646 C226.32109653 31.8728936 226.32185944 35.77581551 226.32875061 39.6806488 C226.31825776 42.15592123 226.30531915 44.63118474 226.28968811 47.10643005 C226.28948669 48.27629456 226.28928528 49.44615906 226.28907776 50.651474 C226.27316589 51.73940247 226.25725403 52.82733093 226.24085999 53.94822693 C226.2324408 54.90434875 226.22402161 55.86047058 226.21534729 56.8455658 C225.75044945 59.84200573 224.93228415 61.23239792 222.82093811 63.38768005 C203.56952917 66.50817199 181.4734625 63.29226815 162.02406311 62.8681488 C159.85430532 62.82133447 157.68454621 62.77458124 155.51478577 62.72789001 C150.28348781 62.61518772 145.05220815 62.50167067 139.82093811 62.38768005 C139.81947155 63.53842892 139.81800499 64.68917778 139.81649399 65.87479782 C139.78080529 93.18068203 139.72458342 120.48645978 139.64301716 147.79224728 C139.63299949 151.15185725 139.6231554 154.5114677 139.61341858 157.87107849 C139.61050652 158.87435119 139.61050652 158.87435119 139.60753563 159.89789203 C139.57649992 170.73308314 139.55953061 181.56825307 139.54774389 192.40348026 C139.53534044 203.51835855 139.50755922 214.63313389 139.46632504 225.74794412 C139.44364885 231.99229186 139.42803112 238.23648053 139.42905426 244.48087311 C139.42979723 250.35450528 139.41199265 256.22778497 139.37977028 262.10132599 C139.37122969 264.26045628 139.36954933 266.41962592 139.37513542 268.57876587 C139.38173428 271.52051233 139.3639535 274.46112366 139.33992004 277.40275574 C139.34768046 278.26267679 139.35544088 279.12259784 139.36343646 280.00857711 C139.27982654 285.76569173 139.27982654 285.76569173 136.95450211 288.91749191 C134.18826543 290.82363973 132.4535052 290.89470484 129.10609436 290.90525818 C127.38410828 290.92417114 127.38410828 290.92417114 125.62733459 290.94346619 C124.39184875 290.93536926 123.15636292 290.92727234 121.88343811 290.91893005 C120.61121399 290.92275696 119.33898987 290.92658386 118.0282135 290.93052673 C115.33779984 290.93324932 112.6488394 290.92787819 109.95863342 290.90916443 C106.51499066 290.88637367 103.07259484 290.89949974 99.6289978 290.92345428 C96.33876683 290.94140558 93.04868537 290.92882726 89.75843811 290.91893005 C88.52295227 290.92702698 87.28746643 290.9351239 86.01454163 290.94346619 C84.8665509 290.93085754 83.71856018 290.9182489 82.53578186 290.90525818 C81.52636536 290.90207581 80.51694885 290.89889343 79.47694397 290.89561462 C75.92132471 290.21563798 74.97361969 289.305476 72.82093811 286.38768005 C72.22013923 283.39682631 72.27450117 280.44500685 72.30195618 277.40275574 C72.29445493 276.48462231 72.28695367 275.56648888 72.27922511 274.62053323 C72.25888919 271.53715365 72.26706228 268.45450528 72.27503967 265.37107849 C72.26630789 263.16361257 72.2558235 260.95615298 72.24371338 258.748703 C72.21578461 252.74908112 72.21245022 246.74966506 72.21343327 240.7499876 C72.21031008 234.4825444 72.18470428 228.21519471 72.16145325 221.94779968 C72.12546095 211.4261375 72.10337989 200.90451105 72.0919342 190.38279724 C72.0801072 179.5455219 72.05991338 168.70831541 72.02845764 157.87107849 C72.02555349 156.86902432 72.02555349 156.86902432 72.02259067 155.84672663 C72.01282614 152.49537679 72.00289702 149.14402746 71.99288607 145.79267836 C71.91041988 117.99104372 71.85636975 90.1894116 71.82093811 62.38768005 C70.69699142 62.40647217 70.69699142 62.40647217 69.55033875 62.42564392 C62.40392207 62.54486238 55.25748336 62.66261878 48.11101723 62.77883148 C44.43911555 62.83859127 40.76722406 62.89886877 37.09535217 62.96043396 C28.85318338 63.09826272 20.61100661 63.22309966 12.36842346 63.33348083 C9.21364888 63.38168014 6.06011549 63.44907259 2.90589905 63.5243988 C1.28123348 63.55226674 -0.34344029 63.57966376 -1.96812439 63.60643005 C-2.66795441 63.62967346 -3.36778442 63.65291687 -4.08882141 63.67686462 C-6.96516482 63.70905032 -8.9920317 63.47803723 -11.59739685 62.21934509 C-13.76400281 59.71028263 -13.68612594 58.15585599 -13.69664001 54.86228943 C-13.70924866 53.73101624 -13.7218573 52.59974304 -13.73484802 51.43418884 C-13.7267511 50.21227844 -13.71865417 48.99036804 -13.71031189 47.73143005 C-13.71413879 46.47761536 -13.7179657 45.22380066 -13.72190857 43.93199158 C-13.72463317 41.27847767 -13.71924254 38.62643349 -13.70054626 35.97312927 C-13.67775509 32.57307283 -13.69087825 29.17427921 -13.71483612 25.7742691 C-13.73276986 22.53077746 -13.72021175 19.28743817 -13.71031189 16.04393005 C-13.71840881 14.82201965 -13.72650574 13.60010925 -13.73484802 12.34117126 C-13.72223938 11.20989807 -13.70963074 10.07862488 -13.69664001 8.91307068 C-13.69345764 7.91618225 -13.69027527 6.91929382 -13.68699646 5.89219666 C-13.17906189 3.38768005 -13.17906189 3.38768005 -11.72100735 1.75537777 C-7.88115883 -0.31065871 -4.29663933 -0.02934911 0 0 Z " fill="#E54D23" transform="translate(60.17906188964844,1839.612319946289)"/>
<path d="M0 0 C1.16470825 -0.01583633 2.3294165 -0.03167267 3.52941895 -0.04798889 C4.77848022 -0.04302902 6.0275415 -0.03806915 7.31445312 -0.03295898 C9.25040344 -0.04225685 9.25040344 -0.04225685 11.22546387 -0.05174255 C13.9524118 -0.06212993 16.67883736 -0.05760965 19.40576172 -0.04296875 C22.89317546 -0.02577333 26.3789427 -0.0492902 29.86617279 -0.08445835 C33.20319613 -0.11174943 36.53982337 -0.10169547 39.87695312 -0.09545898 C41.1260144 -0.10871719 42.37507568 -0.1219754 43.6619873 -0.13563538 C45.40904968 -0.11683571 45.40904968 -0.11683571 47.19140625 -0.09765625 C48.21335083 -0.09669449 49.23529541 -0.09573273 50.28820801 -0.09474182 C54.35283385 0.81473566 55.59433099 2.18891082 58.09570312 5.53344727 C58.84397195 9.26096134 58.76576994 12.93975815 58.72389221 16.73095703 C58.7309866 17.87509599 58.73808099 19.01923494 58.74539036 20.19804478 C58.7630245 24.04065372 58.74483642 27.88225847 58.72680664 31.72485352 C58.72918588 34.47608219 58.73903371 37.22727288 58.74848938 39.97848511 C58.76687514 46.68058517 58.75834759 53.38239382 58.74040116 60.08448482 C58.72637937 65.53104508 58.72248144 70.9775262 58.72584343 76.42410278 C58.72632087 77.19908287 58.72679831 77.97406295 58.72729022 78.77252728 C58.72831655 80.34685097 58.72937191 81.92117465 58.73045599 83.4954983 C58.73902494 97.41868806 58.72234179 111.34173707 58.69262695 125.26489258 C58.66378905 138.77732251 58.65670573 152.28954968 58.67211914 165.80200195 C58.68887756 180.51374224 58.6929192 195.22538623 58.67540878 209.93712902 C58.67356438 211.50568325 58.67172965 213.07423749 58.66990471 214.64279175 C58.66899262 215.41456412 58.66808053 216.1863365 58.6671408 216.98149592 C58.66153316 222.42193541 58.6648447 227.86232794 58.67144966 233.30276489 C58.67917863 239.93227254 58.6724462 246.56158052 58.64727462 253.19104791 C58.63476893 256.57407029 58.63078989 259.95652222 58.63981628 263.33959579 C58.64847162 267.00537257 58.63261956 270.6702372 58.61036682 274.3359375 C58.61860759 275.40742822 58.62684836 276.47891893 58.63533884 277.58287907 C58.58493909 282.06379566 58.54181608 284.77500697 56.23665524 288.69402981 C53.41486492 291.11839528 51.80090893 291.16120638 48.10546875 291.16455078 C46.89741577 291.17708389 45.68936279 291.189617 44.44470215 291.20252991 C42.49304138 291.18264259 42.49304138 291.18264259 40.50195312 291.16235352 C39.14961557 291.16318251 37.79727812 291.16564306 36.44494629 291.16966248 C33.61354162 291.17251844 30.78292889 291.15784128 27.95166016 291.13037109 C24.3263965 291.09628664 20.70254855 291.10230728 17.0772171 291.12103367 C14.28554532 291.13161383 11.49420171 291.12265703 8.70256042 291.10764885 C6.7172884 291.0999613 4.73197658 291.10731549 2.7467041 291.11488342 C1.53865112 291.09904709 0.33059814 291.08321075 -0.9140625 291.06689453 C-2.50812927 291.05759666 -2.50812927 291.05759666 -4.13439941 291.04811096 C-7.85392371 290.35700086 -8.72352488 289.66003306 -10.90429688 286.53344727 C-11.52179899 282.82083225 -11.4475444 279.12955637 -11.41896057 275.37353516 C-11.4259061 274.22137795 -11.43285163 273.06922075 -11.44000763 271.8821497 C-11.45515486 268.68346749 -11.4523186 265.48538057 -11.4418546 262.28669786 C-11.43487232 258.83740206 -11.45085302 255.38820209 -11.46385193 251.93893433 C-11.48551317 245.18160495 -11.48535972 238.42444383 -11.47722638 231.66709113 C-11.47093119 226.17616635 -11.47205898 220.68529071 -11.47849846 215.19436646 C-11.47940011 214.41341144 -11.48030177 213.63245642 -11.48123075 212.8278361 C-11.48308191 211.24143114 -11.48494447 209.6550262 -11.48681831 208.06862128 C-11.503404 193.18652584 -11.49467086 178.30452516 -11.47783273 163.4224354 C-11.46313317 149.80033775 -11.47776633 136.17846061 -11.50660289 122.55639136 C-11.53597868 108.57570788 -11.54697462 94.59512625 -11.53742069 80.61441326 C-11.53639812 79.03378488 -11.53540351 77.45315649 -11.53443718 75.87252808 C-11.53396079 75.09479178 -11.5334844 74.31705548 -11.53299357 73.51575142 C-11.53082713 68.03024734 -11.54064562 62.54483943 -11.55520821 57.05935669 C-11.57270311 50.37597993 -11.57265533 43.69288443 -11.54985655 37.00951886 C-11.53868842 33.59827433 -11.53560888 30.18752585 -11.55415726 26.77630234 C-11.56998025 23.08150849 -11.55523618 19.38808713 -11.53248596 15.69335938 C-11.54432169 14.6104918 -11.55615742 13.52762423 -11.56835181 12.41194248 C-11.47740394 5.17966209 -11.47740394 5.17966209 -8.5405035 1.86811924 C-5.46923962 0.31318429 -3.43660691 0.02084465 0 0 Z " fill="#E54D23" transform="translate(650.904296875,1839.466552734375)"/>
<path d="M0 0 C-0.66 1.32 -1.32 2.64 -2 4 C-21.14 4 -40.28 4 -60 4 C-60 3.34 -60 2.68 -60 2 C-59.31761765 1.98969254 -58.63523529 1.97938507 -57.93217468 1.96876526 C-50.84343768 1.86076179 -43.75482937 1.74615869 -36.66625977 1.62768555 C-34.01915168 1.58431696 -31.37201528 1.54264332 -28.72485352 1.50268555 C-24.924555 1.44502977 -21.12439932 1.38132156 -17.32421875 1.31640625 C-16.13664474 1.29969376 -14.94907074 1.28298126 -13.72550964 1.26576233 C-12.0741375 1.2358445 -12.0741375 1.2358445 -10.3894043 1.20532227 C-9.41899704 1.18977798 -8.44858978 1.1742337 -7.44877625 1.15821838 C-4.81191215 0.98784742 -2.62767759 0 0 0 Z " fill="#CF4511" transform="translate(573,2126)"/>
<path d="M0 0 C1.12377697 3.30435084 0.89554742 5.0506862 -0.4375 8.25 C-0.72496094 8.95640625 -1.01242187 9.6628125 -1.30859375 10.390625 C-1.53675781 10.92171875 -1.76492188 11.4528125 -2 12 C-2.66 12 -3.32 12 -4 12 C-4 13.65 -4 15.3 -4 17 C-4.99 16.67 -5.98 16.34 -7 16 C-6.02394493 13.51956646 -5.04432337 11.04064915 -4.0625 8.5625 C-3.78470703 7.85544922 -3.50691406 7.14839844 -3.22070312 6.41992188 C-1.11328125 1.11328125 -1.11328125 1.11328125 0 0 Z " fill="#076536" transform="translate(1878,1857)"/>
<path d="M0 0 C0.99 0 1.98 0 3 0 C3 3.96 3 7.92 3 12 C2.34 12 1.68 12 1 12 C0.01751476 7.9472484 -0.08159574 4.16138263 0 0 Z " fill="#B53312" transform="translate(1318,678)"/>
<path d="M0 0 C0.66 0.33 1.32 0.66 2 1 C0.35 5.95 -1.3 10.9 -3 16 C-3.33 16 -3.66 16 -4 16 C-3.6083965 10.04492601 -2.62875405 5.37180176 0 0 Z " fill="#085C32" transform="translate(1917,1085)"/>
<path d="M0 0 C0.33 0 0.66 0 1 0 C1 6.6 1 13.2 1 20 C0.01 20.33 -0.98 20.66 -2 21 C-2 19.68 -2 18.36 -2 17 C-1.34 17 -0.68 17 0 17 C0 11.39 0 5.78 0 0 Z " fill="#DE491C" transform="translate(967,1869)"/>
<path d="M0 0 C0.66 0 1.32 0 2 0 C1.34 4.29 0.68 8.58 0 13 C-0.99 13 -1.98 13 -3 13 C-3 12.01 -3 11.02 -3 10 C-2.34 10 -1.68 10 -1 10 C-1.33 9.01 -1.66 8.02 -2 7 C-1.40206327 4.64811553 -0.74118205 2.31074405 0 0 Z " fill="#CF431A" transform="translate(697,748)"/>
<path d="M0 0 C0.99 0 1.98 0 3 0 C3 3.63 3 7.26 3 11 C2.34 11 1.68 11 1 11 C0.67 7.37 0.34 3.74 0 0 Z " fill="#D8451C" transform="translate(1319,1120)"/>
<path d="M0 0 C0.33 0 0.66 0 1 0 C1.43200679 4.75207471 -0.01510917 7.78210698 -2 12 C-2.66 12 -3.32 12 -4 12 C-3.33501617 7.61110675 -1.81242323 4.0188515 0 0 Z " fill="#075A33" transform="translate(1799,2042)"/>
<path d="M0 0 C0.33 0 0.66 0 1 0 C1 1.98 1 3.96 1 6 C0.01 5.67 -0.98 5.34 -2 5 C-2 5.99 -2 6.98 -2 8 C-2.99 7.67 -3.98 7.34 -5 7 C-4.19152271 5.83054208 -3.37810888 4.66449539 -2.5625 3.5 C-2.11003906 2.8503125 -1.65757812 2.200625 -1.19140625 1.53125 C-0.79824219 1.0259375 -0.40507813 0.520625 0 0 Z " fill="#D0421E" transform="translate(609,388)"/>
<path d="M0 0 C3.28330144 2.92348758 3.95866933 5.75457495 5 10 C4.01 9.67 3.02 9.34 2 9 C1.26953125 6.93359375 1.26953125 6.93359375 0.8125 4.4375 C0.65394531 3.61121094 0.49539062 2.78492187 0.33203125 1.93359375 C0.16767578 0.97646484 0.16767578 0.97646484 0 0 Z " fill="#076436" transform="translate(2053,2101)"/>
<path d="M0 0 C0.99 0 1.98 0 3 0 C2.67 2.31 2.34 4.62 2 7 C1.01 7 0.02 7 -1 7 C-0.67 4.69 -0.34 2.38 0 0 Z " fill="#095430" transform="translate(2296,2056)"/>
<path d="M0 0 C2 1.375 2 1.375 4 3 C4 3.66 4 4.32 4 5 C4.99 5.33 5.98 5.66 7 6 C6.67 7.32 6.34 8.64 6 10 C4.99421411 8.71283353 3.99553202 7.42011342 3 6.125 C2.443125 5.40570312 1.88625 4.68640625 1.3125 3.9453125 C0 2 0 2 0 0 Z " fill="#CF441E" transform="translate(892,2022)"/>
<path d="M0 0 C0.33 0 0.66 0 1 0 C1 2.64 1 5.28 1 8 C0.01 8 -0.98 8 -2 8 C-2 6.35 -2 4.7 -2 3 C-1.34 3 -0.68 3 0 3 C0 2.01 0 1.02 0 0 Z " fill="#C73D1C" transform="translate(1081,587)"/>
<path d="M0 0 C0.33 0 0.66 0 1 0 C1.41176754 3.60296594 1.1535853 4.78402067 -1 7.8125 C-1.66 8.534375 -2.32 9.25625 -3 10 C-3.33 9.34 -3.66 8.68 -4 8 C-3.22265625 6.0546875 -3.22265625 6.0546875 -2.0625 3.875 C-1.49208984 2.78832031 -1.49208984 2.78832031 -0.91015625 1.6796875 C-0.60980469 1.12539063 -0.30945313 0.57109375 0 0 Z " fill="#C93E18" transform="translate(537,497)"/>
<path d="M0 0 C0.33 0 0.66 0 1 0 C1 1.65 1 3.3 1 5 C0.01 5.33 -0.98 5.66 -2 6 C-2 6.99 -2 7.98 -2 9 C-2.66 9 -3.32 9 -4 9 C-2.80100302 5.9168649 -1.52299523 2.93720508 0 0 Z " fill="#08643A" transform="translate(1408,967)"/>
<path d="M0 0 C2 1 2 1 2 1 Z " fill="#037F49" transform="translate(815,1511)"/>
<path d="" fill="#0C7142" transform="translate(0,0)"/>
</svg>
